<svg viewBox="0 0 1030 444" xmlns="http://www.w3.org/2000/svg" xml:space="preserve" style="fill-rule:evenodd;clip-rule:evenodd;stroke-linejoin:round;stroke-miterlimit:2"><path d="m236.906 222.896 63.824 111.133H172.912l-64.021-111.18 63.936-111.033-.085-.147h.17l.169-.293.168.292 127.873-.292-64.216 111.52Zm-56.474 98.074h97.738l-48.804-84.98-48.934 84.98Zm254.349-209.803v124.062h-33.278l-41.534-71.602h-.788v71.602h-29.986V111.167h33.642l40.989 71.481h1.03v-71.481h29.925Zm21.785 124.062V111.167h29.986v97.751h51.611v26.311h-81.597Zm173.035-124.062h29.925v80.023c0 27.744-21.141 45.614-52.46 45.614-31.56 0-52.52-17.87-52.52-45.614v-80.023h29.986v77.418c0 12.903 9.086 22.171 22.534 22.171 13.388 0 22.535-9.268 22.535-22.171v-77.418Zm125.7 0h29.925v80.023c0 27.744-21.142 45.614-52.46 45.614-31.561 0-52.521-17.87-52.521-45.614v-80.023h29.986v77.418c0 12.903 9.087 22.171 22.535 22.171 13.387 0 22.535-9.268 22.535-22.171v-77.418Zm132.06 40.526c-2.666-10.055-10.844-15.931-22.838-15.931-17.991 0-29.319 13.569-29.319 37.255 0 23.867 10.722 37.618 29.319 37.618 16.235 0 25.321-7.516 25.624-20.6h-24.594v-23.436h53.49v17.984c0 33.317-22.838 52.342-54.762 52.342-35.559 0-59.669-24.291-59.669-63.545 0-40.587 26.17-63.909 59.305-63.909 28.714 0 50.764 17.507 53.793 42.222h-30.349Z" style="fill:#fff"/></svg>