<svg viewBox="0 0 1030 444" xmlns="http://www.w3.org/2000/svg" xml:space="preserve" style="fill-rule:evenodd;clip-rule:evenodd;stroke-linejoin:round;stroke-miterlimit:2"><path d="m237.758 222.776-64.22 111.233H301.64l-63.882-111.233Z" style="fill:#fa198b"/><path d="m173.622 333.862-64.051-110.94 63.882-110.94-.084-.147h.169l.169-.293.167.292 127.766-.292-128.018 222.32Zm261.566-222.528v123.958h-33.25l-41.5-71.542h-.787v71.542H329.69V111.334h33.614l40.955 71.421h1.029v-71.421h29.9Zm21.766 123.958V111.334h29.961v97.669h51.568v26.289h-81.529Zm172.89-123.958h29.9v79.955c0 27.721-21.124 45.577-52.416 45.577-31.534 0-52.476-17.856-52.476-45.577v-79.955h29.96v77.353c0 12.892 9.079 22.152 22.516 22.152 13.376 0 22.516-9.26 22.516-22.152v-77.353Zm125.594 0h29.9v79.955c0 27.721-21.124 45.577-52.416 45.577-31.534 0-52.476-17.856-52.476-45.577v-79.955h29.96v77.353c0 12.892 9.079 22.152 22.516 22.152 13.376 0 22.516-9.26 22.516-22.152v-77.353Zm131.949 40.492c-2.663-10.047-10.834-15.918-22.818-15.918-17.976 0-29.295 13.558-29.295 37.223 0 23.848 10.713 37.587 29.295 37.587 16.221 0 25.3-7.509 25.603-20.583h-24.574V166.72h53.445v17.968c0 33.29-22.819 52.299-54.716 52.299-35.529 0-59.619-24.271-59.619-63.492 0-40.553 26.148-63.856 59.256-63.856 28.689 0 50.721 17.492 53.747 42.187h-30.324Z" style="fill:#26266b"/></svg>