<?xml version="1.0" encoding="UTF-8" standalone="no"?>
<!DOCTYPE svg PUBLIC "-//W3C//DTD SVG 1.1//EN" "http://www.w3.org/Graphics/SVG/1.1/DTD/svg11.dtd">
<svg width="100%" height="100%" viewBox="0 0 237 237" version="1.1" xmlns="http://www.w3.org/2000/svg" xmlns:xlink="http://www.w3.org/1999/xlink" xml:space="preserve" xmlns:serif="http://www.serif.com/" style="fill-rule:evenodd;clip-rule:evenodd;stroke-linejoin:round;stroke-miterlimit:2;">
    <path d="M118.233,0C183.488,0 236.466,52.978 236.466,118.233C236.466,183.488 183.488,236.466 118.233,236.466C52.978,236.466 -0,183.488 -0,118.233C-0,52.978 52.978,0 118.233,0ZM120.361,193.311C97.364,193.311 78.899,186.311 64.966,172.309C51.032,158.308 44.065,140.283 44.065,118.233C44.065,96.183 51.032,78.158 64.966,64.157C78.899,50.156 97.364,43.155 120.361,43.155C140.923,43.155 157.663,48.194 170.582,58.272C183.501,68.35 190.907,81.844 192.801,98.753L157.9,98.753C156.006,90.637 151.813,84.245 145.319,79.578C138.826,74.911 130.574,72.578 120.564,72.578C107.307,72.578 96.958,76.67 89.518,84.854C82.078,93.038 78.358,104.164 78.358,118.233C78.358,132.302 82.078,143.428 89.518,151.612C96.958,159.796 107.307,163.889 120.564,163.889C130.574,163.889 138.826,161.555 145.319,156.888C151.813,152.221 156.006,145.829 157.9,137.713L192.801,137.713C190.907,154.622 183.501,168.116 170.582,178.194C157.663,188.272 140.923,193.311 120.361,193.311Z" style="fill:#5050dc;"/>
</svg>
