<?xml version="1.0" encoding="UTF-8" standalone="no"?>
<svg
   xmlns:dc="http://purl.org/dc/elements/1.1/"
   xmlns:cc="http://creativecommons.org/ns#"
   xmlns:rdf="http://www.w3.org/1999/02/22-rdf-syntax-ns#"
   xmlns:svg="http://www.w3.org/2000/svg"
   xmlns="http://www.w3.org/2000/svg"
   xmlns:sodipodi="http://sodipodi.sourceforge.net/DTD/sodipodi-0.dtd"
   xmlns:inkscape="http://www.inkscape.org/namespaces/inkscape"
   width="4000"
   height="4000"
   viewBox="0 0 1058.3333 1058.3334"
   version="1.1"
   id="svg8"
   sodipodi:docname="white-openbsd-amsterdam.svg"
   inkscape:export-filename="/home/romanzolotarev/src/www/openbsd/amsterdam.png"
   inkscape:export-xdpi="96"
   inkscape:export-ydpi="96"
   inkscape:version="1.0.1 (c497b03c, 2020-09-10)"
   style="shape-rendering:crispEdges">
  <defs
     id="defs2" />
  <sodipodi:namedview
     id="base"
     pagecolor="#ffffff"
     bordercolor="#666666"
     borderopacity="1.0"
     inkscape:pageopacity="0.0"
     inkscape:pageshadow="2"
     inkscape:zoom="0.21775"
     inkscape:cx="1115.9587"
     inkscape:cy="2000"
     inkscape:document-units="px"
     inkscape:current-layer="g283"
     showgrid="false"
     units="px"
     inkscape:snap-page="true"
     inkscape:window-width="1918"
     inkscape:window-height="1079"
     inkscape:window-x="0"
     inkscape:window-y="23"
     inkscape:window-maximized="0"
     inkscape:snap-text-baseline="true"
     showguides="false"
     showborder="true"
     inkscape:showpageshadow="false"
     inkscape:pagecheckerboard="true"
     inkscape:measure-start="0,0"
     inkscape:measure-end="0,0"
     inkscape:document-rotation="0" />
  <metadata
     id="metadata5">
    <rdf:RDF>
      <cc:Work
         rdf:about="">
        <dc:format>image/svg+xml</dc:format>
        <dc:type
           rdf:resource="http://purl.org/dc/dcmitype/StillImage" />
        <dc:title></dc:title>
      </cc:Work>
    </rdf:RDF>
  </metadata>
  <g
     inkscape:label="Layer 1"
     inkscape:groupmode="layer"
     id="layer1"
     transform="translate(0,-58.874984)">
    <rect
       inkscape:export-ydpi="8.999999"
       inkscape:export-xdpi="8.999999"
       y="212.33331"
       x="301.83368"
       height="84.666672"
       width="84.666656"
       id="rect5158"
       style="fill:none;fill-opacity:1;stroke:none;stroke-width:2.64583;stroke-miterlimit:4;stroke-dasharray:none;stroke-opacity:1" />
    <g
       id="g287"
       transform="matrix(33.333333,0,0,33.333333,-7055.5555,-2785.5693)"
       inkscape:export-xdpi="191.99998"
       inkscape:export-ydpi="191.99998">
      <g
         inkscape:export-ydpi="96"
         inkscape:export-xdpi="96"
         transform="matrix(0.12,0,0,0.11999999,211.66667,81.443333)"
         style="stroke:none"
         id="g285">
        <g
           style="stroke:none;fill:#000000"
           id="g283"
           transform="matrix(0.79298169,0,0,0.79298169,26.452643,67.799849)">
          <text
             id="text275"
             y="240.95996"
             x="27.266727"
             style="font-style:normal;font-variant:normal;font-weight:normal;font-stretch:normal;font-size:55.94980000000000331px;line-height:1.25;font-family:Times;-inkscape-font-specification:'Times, Normal';font-variant-ligatures:normal;font-variant-caps:normal;font-variant-numeric:normal;font-feature-settings:normal;text-align:start;letter-spacing:0px;word-spacing:0px;writing-mode:lr-tb;text-anchor:start;fill:#000000;fill-opacity:1;stroke:none;stroke-width:0.349762"
             xml:space="preserve"><tspan
               style="font-style:normal;font-variant:normal;font-weight:bold;font-stretch:normal;font-size:55.94980000000000331px;font-family:Times;-inkscape-font-specification:'Times, Normal';font-variant-ligatures:normal;font-variant-caps:normal;font-variant-numeric:normal;font-feature-settings:normal;text-align:start;letter-spacing:-2.72533000000000003px;writing-mode:lr-tb;text-anchor:start;fill:#000000;stroke:none;stroke-width:0.349762"
               y="240.95996"
               x="27.266727"
               id="tspan273"
               sodipodi:role="line"><tspan
   id="tspan271"
   style="font-style:italic;font-variant:normal;font-weight:bold;font-stretch:normal;font-size:55.94980000000000331px;font-family:Times;-inkscape-font-specification:'Times, Normal';font-variant-ligatures:normal;font-variant-caps:normal;font-variant-numeric:normal;font-feature-settings:normal;text-align:start;letter-spacing:-2.72533000000000003px;writing-mode:lr-tb;text-anchor:start;stroke:none;stroke-width:0.349762;fill:#000000">Open</tspan>BSD</tspan></text>
          <text
             id="text281"
             y="264.23114"
             x="65.050117"
             style="font-style:normal;font-variant:normal;font-weight:normal;font-stretch:normal;font-size:34.71020000000000039px;line-height:1.25;font-family:Times;-inkscape-font-specification:'Times, Normal';font-variant-ligatures:normal;font-variant-caps:normal;font-variant-numeric:normal;font-feature-settings:normal;text-align:start;letter-spacing:-5.51377999999999968px;word-spacing:0px;writing-mode:lr-tb;text-anchor:start;fill:#ec0000;fill-opacity:1;stroke:none;stroke-width:0.151534;"
             xml:space="preserve"
             inkscape:export-xdpi="96"
             inkscape:export-ydpi="96"><tspan
               style="font-style:normal;font-variant:normal;font-weight:normal;font-stretch:normal;font-size:34.71020000000000039px;font-family:Times;-inkscape-font-specification:'Times, Normal';font-variant-ligatures:normal;font-variant-caps:normal;font-variant-numeric:normal;font-feature-settings:normal;text-align:start;letter-spacing:-1.35260000000000002px;writing-mode:lr-tb;text-anchor:start;fill:#ec0000;fill-opacity:1;stroke:none;stroke-width:0.151534;"
               y="264.23114"
               x="65.050117"
               id="tspan279"
               sodipodi:role="line">.<tspan
   style="font-style:normal;font-variant:normal;font-weight:normal;font-stretch:normal;font-size:34.71020000000000039px;line-height:6.25;font-family:Times;-inkscape-font-specification:'Times, Normal';font-variant-ligatures:normal;font-variant-caps:normal;font-variant-numeric:normal;font-feature-settings:normal;text-align:start;letter-spacing:-1.35260000000000002px;writing-mode:lr-tb;text-anchor:start;fill:#ec0000;fill-opacity:1;stroke:none;stroke-width:0.151534;"
   id="tspan277">amsterdam</tspan></tspan></text>
        </g>
        <path
           style="fill:#000000;stroke-width:0.269177;shape-rendering:crispEdges"
           d="m 147.79807,223.03799 c -0.60486,-2.27509 -1.93,-6.49206 -2.30497,-7.3351 -0.26302,-0.59215 -1.11307,-2.72852 -1.88823,-4.74747 -1.57708,-4.10751 -1.73412,-4.26999 -4.12487,-4.26979 h -1.40054 l -0.47108,2.37492 c -0.25935,1.30622 -0.4711,2.87086 -0.4711,3.47702 0,1.79465 -1.7738,4.86377 -2.43119,4.2064 -0.14006,-0.14006 -0.61711,-2.38388 -1.0598,-4.98584 -0.4426,-2.60202 -0.87836,-4.92255 -0.96828,-5.15682 -0.13972,-0.36399 -1.76448,-0.84959 -3.60543,-1.0784 -0.72745,-0.0904 -4.84002,8.93509 -5.80387,12.73702 -0.64361,2.53863 -1.08427,2.92338 -2.09558,1.8295 -0.54932,-0.59413 -0.59121,-0.90857 -0.60468,-4.53139 -0.0166,-3.90169 -0.55829,-7.70126 -1.60783,-11.23568 -0.48616,-1.63624 -0.97088,-2.0258 -3.38794,-2.72153 -0.94551,-0.27197 -1.91358,-0.57811 -2.15116,-0.67994 -0.48559,-0.20805 -0.94009,0.70804 -2.36392,4.76548 -1.18349,3.37252 -1.22531,3.43286 -2.25645,3.26149 -2.20786,-0.36726 -2.08128,-0.24917 -2.07598,-1.93118 0.003,-0.84844 0.18199,-2.69336 0.39899,-4.09984 0.52197,-3.38814 0.51192,-4.02231 -0.0675,-4.19478 -0.25935,-0.077 -0.9556,-0.37661 -1.54781,-0.66519 -0.59218,-0.28908 -1.2711,-0.52478 -1.50867,-0.5242 -1.17422,0.003 -4.72623,4.80705 -7.360415,9.95686 -0.865803,1.69263 -1.682138,2.96436 -1.902799,2.96436 -0.212531,0 -0.559181,-0.27279 -0.770168,-0.60568 -0.337523,-0.53311 -0.307801,-1.04086 0.250002,-4.23952 0.757406,-4.34344 1.266171,-10.19419 1.033859,-11.88919 -0.149021,-1.0863 -0.335481,-1.35278 -1.681108,-2.40506 -2.82632,-2.20962 -4.629767,-3.25589 -5.033984,-2.92044 -0.991609,0.823 -3.575877,4.28011 -4.291613,5.74127 -0.867861,1.77167 -1.609236,2.1653 -2.83865,1.50735 -0.773669,-0.41411 -0.608483,-1.22487 1.247934,-6.12485 0.800867,-2.1139 1.456082,-4.19097 1.456082,-4.61563 0,-0.61791 -0.37906,-1.10795 -1.896775,-2.45373 -1.881791,-1.66836 -1.904625,-1.67928 -2.893662,-1.38039 -2.70312,0.81681 -7.300128,4.46692 -9.320867,7.40097 -1.130691,1.64165 -2.42504,2.72031 -2.999819,2.49975 -0.635417,-0.24348 -0.464391,-0.81721 1.364346,-4.57607 0.962303,-1.97792 1.749629,-3.67579 1.749629,-3.7731 0,-0.0973 0.615039,-1.76823 1.366719,-3.71317 1.812773,-4.69057 1.888296,-6.81391 0.306574,-8.62713 -1.130923,-1.29653 -4.381092,0.003 -7.371419,2.94638 -1.080923,1.06416 -1.65854,1.45129 -1.980929,1.32756 -0.700452,-0.26872 -0.286211,-1.80916 0.794595,-2.95517 1.100389,-1.16675 3.111287,-4.16114 3.928385,-5.84965 l 0.59695,-1.23353 -1.612622,-3.61164 c -0.886962,-1.98645 -1.696774,-3.88424 -1.799546,-4.21738 -0.209676,-0.67944 -0.639782,-0.76848 -1.300257,-0.26912 -0.244691,0.18485 -1.060279,2.02613 -1.812241,4.09121 -0.751996,2.06508 -1.611079,4.14933 -1.909156,4.63158 -1.921684,3.10941 -7.584148,5.98414 -12.734379,6.46506 -1.343818,0.12579 -1.721982,0.0765 -1.842743,-0.23819 -0.232477,-0.60571 0.153171,-1.02111 1.305684,-1.40774 0.832613,-0.27931 1.204504,-0.63378 1.797555,-1.71392 1.1207,-2.04115 1.063581,-3.09753 -0.492901,-9.11791 -1.486452,-5.74902 -3.826675,-11.10358 -7.469579,-17.09057 -3.746903,-6.15792 -10.798721,-14.64485 -13.207432,-15.89522 -1.493404,-0.77524 -3.554303,-0.75897 -4.844304,0.0407 -0.764575,0.47279 -1.066834,0.53198 -1.505751,0.29721 -0.302508,-0.16163 -0.542635,-0.44094 -0.534255,-0.62093 0.02854,-0.5538 3.755267,-3.20815 6.362386,-4.52742 2.934186,-1.48477 5.601395,-2.19325 8.40186,-2.23169 3.348377,-0.0448 4.28363,0.23045 7.337017,2.16541 1.530494,0.97007 2.843297,1.84933 2.917277,1.95389 0.07368,0.10472 1.285355,1.04047 2.691769,2.07971 1.406447,1.03926 3.748496,2.87603 5.204578,4.08167 2.95274,2.44498 3.948946,2.83284 5.444641,2.11952 0.494559,-0.23574 1.096654,-0.73025 1.338159,-1.09892 0.608368,-0.92842 2.034994,-4.80425 1.900476,-5.16295 -0.199901,-0.53311 -3.07272,-2.26938 -4.879386,-2.94943 -0.976093,-0.36725 -2.380797,-0.97516 -3.121509,-1.35047 -2.479239,-1.25636 -0.989734,-1.817 2.782958,-1.0475 2.62816,0.53588 4.975735,0.59932 5.803288,0.15632 0.462731,-0.24754 0.600717,-0.56097 0.600717,-1.3632 0,-0.97443 -0.117326,-1.12833 -1.816971,-2.38075 -0.999309,-0.73639 -2.543726,-1.79226 -3.431999,-2.34634 -4.434544,-2.7661 -5.168883,-3.5251 -4.794553,-4.95626 0.165285,-0.63238 1.473507,-1.36891 2.431279,-1.36891 0.357055,0 2.04228,0.61785 3.744481,1.37298 2.114948,0.93822 3.588654,1.41771 4.654027,1.51433 l 1.559004,0.14122 0.549904,-2.12001 c 0.302508,-1.16602 0.607903,-2.37939 0.678746,-2.69648 0.107867,-0.48279 -0.196251,-0.76245 -1.873974,-1.72226 -1.101484,-0.63023 -2.752257,-1.41727 -3.668376,-1.74899 -0.930042,-0.3371 -1.66556,-0.76485 -1.66556,-0.96945 0,-0.41854 0.91217,-0.43532 5.0995,-0.0933 l 2.67695,0.21864 -1.33104,-1.69462 c -1.652682,-2.104162 -6.319355,-6.584408 -8.632463,-8.287572 -1.534178,-1.129744 -1.725035,-1.369689 -1.657577,-2.084264 0.07053,-0.744429 0.166115,-0.814044 1.228766,-0.890712 0.994215,-0.07202 1.586153,0.157153 4.306781,1.663518 3.539982,1.960367 6.705202,3.130255 8.469036,3.130255 1.769825,0 3.971763,-0.722723 3.971763,-1.303642 0,-0.818475 -1.460895,-2.814953 -3.049902,-4.167981 -1.680976,-1.43129 -2.001041,-2.334499 -0.827403,-2.334499 0.384353,0 1.020185,0.226371 1.413168,0.503472 1.517882,1.069007 5.69426,2.906705 5.69426,2.505574 0,-0.117325 -2.11699,-2.508014 -4.70441,-5.312312 -2.932062,-3.177899 -4.706799,-5.311251 -4.710583,-5.662697 -0.0033,-0.310257 0.23573,-0.783144 0.532015,-1.051168 0.295985,-0.268322 0.538121,-0.650103 0.538121,-0.849275 0,-0.523053 1.278767,-0.441987 2.619614,0.166928 0.626556,0.284602 1.968549,1.178849 2.982179,1.987649 4.18753,3.341126 8.253818,5.608066 9.323306,5.197659 0.511338,-0.196234 1.226244,-1.902302 1.219092,-2.909742 -0.0166,-2.088463 -2.287269,-6.008252 -5.980206,-10.315198 -1.145958,-1.336467 -2.084662,-2.678294 -2.086139,-2.981814 -0.0033,-0.64846 0.477268,-1.197833 1.047019,-1.197833 0.22189,0 1.802716,1.364877 3.512733,3.033042 4.655953,4.541946 5.497644,5.129421 8.384153,5.852226 1.063332,0.265866 1.385074,0.240211 2.288,-0.183207 1.334492,-0.626356 1.450739,-1.376361 0.526438,-3.396951 -0.377831,-0.826175 -0.68711,-1.625084 -0.68711,-1.775351 0,-0.150183 -0.439216,-1.113996 -0.975927,-2.141632 -0.536445,-1.027637 -0.892985,-2.002585 -0.791608,-2.166592 0.426356,-0.689699 1.199161,-0.168139 2.929126,1.976249 1.008984,1.250721 2.40184,2.649833 3.095239,3.109129 l 1.260811,0.835186 0.471111,-0.582065 c 0.64247,-0.793367 0.592404,-1.751504 -0.201942,-3.861158 -0.370099,-0.983345 -0.673021,-2.040703 -0.673021,-2.34965 0,-0.309012 -0.544843,-2.176913 -1.211259,-4.150921 -0.666201,-1.973925 -1.211292,-4.063881 -1.211292,-4.644353 0,-1.053126 0.0033,-1.055698 1.263168,-1.228484 0.69476,-0.09492 1.352547,-0.08148 1.461691,0.03253 0.109194,0.112347 1.13542,2.020739 2.280548,4.241479 2.235725,4.33549 3.160955,5.828297 4.227025,6.819607 0.6424,0.597332 0.7095,0.606692 1.3475,0.188103 1.2001,-0.786314 2.18221,-2.565133 2.12932,-3.856645 -0.0729,-1.779725 -1.04828,-5.603678 -2.64811,-10.381786 -1.34274,-4.009898 -1.4193,-4.370289 -0.99584,-4.680828 0.25243,-0.184851 0.61617,-0.336295 0.80851,-0.336295 0.47164,0 1.89307,1.993092 3.7431,5.24887 3.49624,6.152992 6.00817,8.47911 9.15646,8.47911 0.81491,0 0.90578,-0.08513 1.07996,-1.009399 0.10472,-0.554949 0.0501,-1.984762 -0.12247,-3.176837 -0.17222,-1.192042 -0.31228,-2.502322 -0.31228,-2.91175 0,-0.647681 0.079,-0.720234 0.60566,-0.558268 0.33304,0.102224 0.62387,0.20113 0.64611,0.220264 0.0244,0.01659 0.36236,1.002827 0.75476,2.187219 0.3929,1.184391 1.13297,2.789396 1.64462,3.5666 0.86157,1.308737 1.00887,1.413168 1.99213,1.413168 1.0131,0 1.07058,-0.04481 1.2551,-1.009399 0.11119,-0.579658 10e-4,-2.556355 -0.25894,-4.643291 -0.87226,-7.013949 -0.59345,-8.37023 1.47566,-7.179367 0.86909,0.500136 1.05781,0.793483 1.41289,2.195981 0.22514,0.890298 1.06316,3.375079 1.86171,5.521757 1.5473,4.159351 1.61038,4.234028 3.30692,3.915755 l 0.91526,-0.171408 -0.0116,-1.670156 c -0.0116,-1.627607 -0.5549,-5.234101 -0.93534,-6.178847 -0.15466,-0.38515 -0.0448,-0.471094 0.60795,-0.471094 0.7548,0 0.8404,0.118819 1.59769,2.220723 0.83522,2.318086 2.05517,4.508691 2.5109,4.508691 0.28175,0 0.89744,-0.601348 1.68884,-1.649944 0.72093,-0.95525 1.52101,-3.793054 1.96334,-6.9637 1.14156,-8.183356 1.39244,-9.189369 2.23624,-8.968691 0.7448,0.195023 1.27011,2.670146 1.6461,7.757432 0.16412,2.220641 0.41183,4.545049 0.5499,5.165199 0.60396,2.707086 1.96945,5.198074 2.84941,5.198074 0.52305,0 1.57012,-1.993673 2.54465,-4.845184 0.48061,-1.406414 0.8976,-2.590839 0.92648,-2.631994 0.0285,-0.04066 0.37049,0.04481 0.75915,0.193794 0.62612,0.238186 0.67643,0.348111 0.44094,0.967182 -0.40064,1.053607 -0.34323,6.99528 0.0709,7.328787 0.18485,0.149354 0.71809,0.352574 1.18451,0.452094 0.82208,0.175474 0.86087,0.141222 1.26655,-1.112984 0.23044,-0.711687 0.67528,-2.323662 0.98912,-3.582067 0.31391,-1.258371 0.80099,-2.811866 1.08252,-3.452112 0.44539,-1.012319 0.5917,-1.138988 1.1238,-0.971562 0.33631,0.105377 0.9329,0.448177 1.32532,0.760343 0.62109,0.49456 0.73513,0.829029 0.88137,2.58664 0.39615,4.761447 0.76173,8.019913 0.93057,8.293065 0.0994,0.161634 0.71683,0.533126 1.37135,0.826108 1.96803,0.881138 2.71795,0.02854 3.29967,-3.753159 0.36562,-2.374956 0.85371,-3.096102 1.61495,-2.385063 0.29965,0.280122 0.37376,0.792305 0.28989,1.995183 -0.0619,0.890265 0.0504,2.767824 0.24632,4.172379 0.33631,2.390605 0.40553,2.569913 1.08383,2.808414 0.95495,0.335897 1.67349,-0.0619 3.99776,-2.214019 2.69063,-2.491071 4.74311,-5.845555 5.9815,-9.775533 0.19786,-0.627452 1.51535,-0.901781 2.0006,-0.416332 0.34036,0.340361 0.2117,1.000753 -1.00968,5.197327 -1.21672,4.179564 -1.41802,5.211881 -1.54082,7.903069 -0.13309,2.908481 -0.10671,3.126554 0.42976,3.608734 0.5618,0.504666 0.58726,0.504666 1.55736,0 0.54265,-0.282146 1.93247,-1.39133 3.08901,-2.464735 1.15658,-1.073355 2.15744,-1.951489 2.2242,-1.951489 0.28785,0 0.96739,0.880822 0.96739,1.253891 0,0.223931 -0.67868,1.081205 -1.5082,1.904094 -2.43986,2.420443 -3.11222,4.026875 -2.10644,5.03264 0.57322,0.573236 0.84551,0.532562 1.22688,-0.182809 0.6928,-1.299228 3.28045,-4.239555 3.73102,-4.239555 0.83085,0 1.12045,0.636778 0.84567,1.859719 -0.13757,0.611654 -0.41912,1.382219 -0.62582,1.712291 -0.20683,0.330188 -0.66785,1.549926 -1.02455,2.710654 -0.59121,1.923842 -0.6132,2.173793 -0.24876,2.826403 0.64922,1.162237 1.74201,1.080076 4.82932,-0.363179 1.47012,-0.687176 2.79721,-1.172576 2.94912,-1.078682 0.61735,0.381482 0.20153,1.225547 -1.13701,2.310303 -2.69003,2.179253 -3.25382,3.322672 -1.97557,4.006762 0.78684,0.420829 2.26576,0.12247 5.95501,-1.202049 3.07022,-1.102429 5.89393,-2.521223 8.44954,-4.245728 l 1.99849,-1.348498 0.62863,0.730904 c 0.77247,0.898047 0.90757,0.67858 -3.19309,5.185976 -2.82555,3.105827 -5.6024,6.807111 -5.60632,7.472631 -10e-4,0.155992 -0.17099,0.608567 -0.37823,1.005731 -0.62616,1.20019 -0.80228,2.410221 -0.38882,2.672138 0.57639,0.365617 2.06211,0.281747 5.23206,-0.29436 3.45155,-0.627369 3.61221,-0.63784 3.61221,-0.235747 0,0.457156 -0.68614,0.923537 -3.36471,2.287236 -2.98555,1.519957 -3.36549,1.847489 -3.36179,2.898541 0.003,0.858635 0.59134,3.057056 1.02605,3.833806 0.13524,0.24184 1.07896,1.0609 2.097,1.82019 1.79816,1.3411 2.22913,1.86835 5.65623,6.91945 0.66454,0.97942 1.37521,2.33567 1.57936,3.0138 0.34363,1.14229 0.33142,1.28357 -0.16936,1.92034 -0.29723,0.37784 -0.79065,0.68735 -1.09609,0.68735 -0.50575,0 -0.54041,0.11118 -0.38436,1.24888 0.0944,0.68691 0.17101,1.76595 0.17101,2.39789 0,0.99136 0.16048,1.31389 1.16762,2.35041 1.57424,1.6197 3.49433,4.55686 4.64797,7.10961 0.52254,1.15593 1.29728,2.82845 1.72198,3.71675 0.92068,1.92569 1.96432,5.44559 2.41427,8.1426 0.32406,1.9418 0.32977,1.95152 1.17603,1.95255 1.22535,0.001 2.56379,0.92044 3.04537,2.09102 1.29818,3.15538 2.66216,5.70443 3.53806,6.61167 1.83227,1.89807 3.74395,2.45851 4.65228,1.36398 0.57179,-0.68899 1.21644,-0.43366 1.53632,0.60908 0.27891,0.90855 0.22801,1.1201 -0.64426,2.67979 -1.25343,2.24143 -3.48708,4.27304 -5.28488,4.80693 -1.84265,0.54708 -7.16447,0.55214 -8.99556,0.0116 -0.74315,-0.22068 -1.76448,-0.686 -2.26955,-1.03403 l -0.91831,-0.63271 -5.31496,5.4081 -5.31497,5.40819 1.26476,1.85511 c 0.69557,1.0203 1.85849,2.50473 2.58412,3.29878 1.25608,1.37436 1.51544,2.24989 0.66572,2.2474 -0.48112,-0.001 -1.94041,-0.91562 -3.85562,-2.4152 -1.91242,-1.49742 -2.38116,-1.75804 -3.56542,-1.98258 -0.67496,-0.12778 -0.92505,-0.0636 -1.05329,0.27034 -0.21783,0.56833 0.9546,3.96149 1.73647,5.02446 0.66263,0.9009 0.76328,1.53018 0.31636,1.97731 -0.36562,0.3656 -2.62927,-0.45543 -3.87379,-1.40449 -1.19355,-0.91037 -1.57037,-0.83787 -2.43498,0.46887 -1.64992,2.49323 -0.89076,4.16457 4.47766,9.85768 3.883,4.11788 4.17203,4.72808 2.35478,4.97184 -0.98335,0.13193 -1.18635,0.0602 -1.75846,-0.61952 -0.90648,-1.07731 -4.2206,-2.67219 -8.09047,-3.89349 -3.2702,-1.03208 -3.29491,-1.03533 -4.30683,-0.57383 -1.03893,0.4739 -1.86971,1.13431 -2.99806,2.38342 l -0.63443,0.70238 1.42185,2.62962 c 0.78195,1.44631 2.06676,3.59331 2.8551,4.7711 0.78832,1.17779 1.43336,2.34638 1.43336,2.59686 0,0.94734 -1.78126,1.85544 -2.92652,1.49195 -0.29844,-0.0949 -1.74654,-1.65009 -3.21789,-3.45635 -1.47133,-1.80618 -2.99313,-3.57858 -3.38178,-3.93852 -0.67709,-0.62714 -0.7434,-0.63699 -1.5849,-0.23575 -0.48284,0.23044 -1.90573,1.08167 -3.1616,1.89188 -1.25593,0.8102 -2.68065,1.67847 -3.16618,1.92956 -0.4856,0.25081 -0.82113,0.55604 -0.74586,0.67793 0.0753,0.1218 0.3811,1.72158 0.68003,3.55508 0.61972,3.80311 1.25157,5.97735 2.3959,8.24426 0.98787,1.95702 1.34418,3.56848 0.78887,3.56848 -0.21049,0 -2.18291,-1.90782 -4.3832,-4.23951 -4.44213,-4.70736 -5.97088,-6.09481 -7.39011,-6.70683 -0.96034,-0.41407 -3.61125,-0.62284 -3.92505,-0.30901 -0.1535,0.1535 0.17792,2.78638 0.96596,7.68038 0.37253,2.3143 0.22393,3.0847 -0.7132,3.69898 -0.58117,0.38067 -0.83119,0.4051 -1.46418,0.14288 -1.22281,-0.50628 -1.49614,-0.99018 -2.91904,-5.16517 -1.8703,-5.48775 -1.54217,-5.07849 -3.66496,-4.57067 l -1.76212,0.42136 -0.91616,2.84127 c -1.26245,3.9154 -1.78383,6.62081 -1.96529,10.19814 -0.10671,2.10239 -0.2732,3.16871 -0.53646,3.432 -0.47168,0.47164 -0.86999,0.4901 -0.98818,0.0448 z m 0.63771,-10.39167 c 0.13077,-0.68762 0.36724,-1.5912 0.52582,-2.00799 0.44486,-1.169 0.35707,-2.62992 -0.18281,-3.0398 -0.59414,-0.45095 -1.76941,-0.46939 -3.00912,-0.0448 -0.52863,0.17997 -1.00389,0.35424 -1.05618,0.3868 -0.0501,0.0325 0.20642,0.70286 0.574,1.48958 0.36765,0.78668 1.01494,2.50219 1.43774,3.81232 l 0.76871,2.38188 0.35217,-0.8625 c 0.1934,-0.47445 0.45882,-1.42517 0.58947,-2.11276 z m -24.87319,-1.93645 c 0.5387,-1.99132 1.03716,-3.81715 1.10834,-4.05746 0.14205,-0.48061 -1.08839,-1.04364 -2.28072,-1.04364 -0.66434,0 -0.66824,0.0166 -0.49621,1.81697 0.0949,0.9993 0.25079,3.00042 0.34525,4.44684 0.0944,1.44648 0.21091,2.59116 0.25813,2.5439 0.0448,-0.0448 0.52644,-1.71526 1.06501,-3.70661 z m 36.47257,-2.97775 c -1.30653,-8.47013 -1.6375,-13.70111 -1.12591,-17.79357 0.22474,-1.79882 0.36439,-2.00011 1.14489,-1.65184 0.5619,0.2508 0.58193,0.42022 0.63306,5.35853 0.0448,4.18469 0.37091,7.71065 0.7521,8.09165 0.14736,0.1482 4.43494,-1.18279 6.38416,-1.98152 2.91443,-1.19425 8.10375,-3.72812 8.84393,-4.31848 0.60767,-0.4845 0.62089,-0.56867 0.31922,-2.02267 -0.3746,-1.80492 -1.63169,-4.42204 -2.52838,-5.26443 -0.35301,-0.33182 -1.53634,-1.05902 -2.62902,-1.61584 -2.38495,-1.21529 -2.61857,-1.82743 -0.64876,-1.6993 1.17422,0.0765 1.66926,0.32856 4.04242,2.05788 5.33521,3.88812 9.82158,8.38175 12.48811,12.50854 0.61589,0.95307 1.19725,1.80096 1.2918,1.88421 0.23695,0.20847 0.11267,-0.0116 -1.72652,-3.07883 -3.20586,-5.34349 -5.98251,-11.82725 -7.17639,-16.75783 -0.67606,-2.79217 -1.13625,-5.71844 -0.89926,-5.71844 0.0737,0 0.57884,1.05996 1.12287,2.35537 0.54428,1.29542 1.09958,2.59751 1.23451,2.89358 0.24877,0.54543 2.75363,7.12323 3.05832,8.03052 0.15018,0.44818 0.26261,0.41691 1.2193,-0.34079 1.92899,-1.52777 6.79251,-7.18713 7.28133,-8.47279 0.1457,-0.38312 0.43809,-0.69723 0.64919,-0.69723 0.2113,0 0.513,-0.36929 0.67008,-0.82035 0.22516,-0.64549 0.18648,-1.09027 -0.17955,-2.08617 -0.39207,-1.06665 -0.67664,-1.37437 -1.80715,-1.95639 -1.28003,-0.65905 -1.79072,-1.39631 -1.30006,-1.87706 0.31921,-0.31309 2.65332,0.56263 5.77559,2.16643 2.37262,1.21874 3.14961,1.42968 2.41992,0.657 -0.3709,-0.39329 -1.85096,-4.24971 -2.30969,-6.02001 -0.513,-1.97972 -0.52644,-2.98394 -0.0407,-2.98394 0.5816,0 0.8748,0.52249 1.51046,2.69177 0.32531,1.11041 0.67248,2.10507 0.7715,2.21052 0.0989,0.10537 2.92474,-2.49894 6.27938,-5.78733 7.86858,-7.71319 8.85378,-9.19914 10.60907,-16.00176 0.90281,-3.49885 0.94865,-3.88503 0.82354,-6.93524 -0.19461,-4.74077 -1.59528,-9.20117 -5.04328,-16.05893 -1.79918,-3.5784 -3.15008,-3.58756 -4.9285,-0.0325 -0.3868,0.77227 -0.70261,1.45261 -0.70261,1.51166 0,0.0591 0.70199,0.36316 1.56006,0.67634 1.92954,0.7035 3.59851,2.09875 4.33813,3.62666 0.42637,0.88073 0.56203,1.68089 0.56203,3.3151 0,2.53 -0.50466,4.4479 -1.77282,6.737 -1.14661,2.06981 -1.20268,3.62412 -0.24592,6.82026 0.76734,2.56396 0.83093,3.95562 0.29721,6.50728 -0.729,3.48427 -2.61193,5.86676 -5.92592,7.4982 -3.03288,1.49318 -6.36846,1.57949 -8.77457,0.22677 -1.88403,-1.05885 -3.30651,-0.14935 -4.57757,2.9271 -1.42062,3.43831 -2.34949,3.94037 -2.0537,1.10988 0.20073,-1.9212 1.52147,-5.438 2.60264,-6.93047 l 0.797,-1.10024 -0.69383,-2.49499 c -1.07943,-3.8816 -1.72695,-5.86114 -2.47283,-7.55991 -0.63295,-1.44158 -0.74256,-1.55204 -1.38287,-1.39321 -0.90032,0.22352 -1.74857,1.01921 -2.8666,2.68976 -1.92238,2.87237 -3.52292,4.96803 -4.48638,5.87418 -1.0363,0.97463 -2.67629,1.69707 -3.16575,1.3946 -0.28012,-0.17345 1.11613,-2.09413 3.22849,-4.44246 2.82604,-3.14177 5.9589,-8.73261 7.08923,-12.65127 1.44753,-5.01827 1.4853,-7.88556 0.15101,-11.45253 -1.42215,-3.80102 -6.85271,-7.04749 -14.44045,-8.63262 -2.25663,-0.47168 -2.74158,-0.88208 -1.70002,-1.43951 0.28622,-0.153 1.14839,-0.27889 1.91566,-0.27889 1.31512,0 1.38563,-0.0325 1.23303,-0.60558 -0.0888,-0.33306 -0.30332,-1.60497 -0.47611,-2.82642 -0.34038,-2.40647 -0.46773,-2.5304 -1.8609,-1.80997 l -0.79414,0.41074 v -1.30397 c 0,-5.38641 4.94506,-11.63733 14.0653,-17.779365 3.15417,-2.124192 3.62442,-2.124026 2.08524,7.8e-4 -0.44427,0.613163 -0.80749,1.326427 -0.80749,1.585141 0,0.258531 1.2099,2.110716 2.68875,4.115754 2.66167,3.60874 5.96803,8.65025 7.00114,10.67532 0.63016,1.23511 0.40553,1.48397 -0.99025,1.09847 -0.54874,-0.15151 -1.03289,-0.24021 -1.07568,-0.19786 -0.0448,0.0448 0.0407,0.48898 0.18444,0.99189 0.60808,2.12012 0.85485,5.32448 0.5577,7.2403 -0.35095,2.26309 -0.97445,4.19715 -1.66823,5.17577 -0.27849,0.39288 -0.50632,0.83834 -0.50632,0.98968 0,0.15151 -0.50124,1.0019 -1.11437,1.89006 -1.18296,1.71436 -1.23869,2.01207 -0.91354,4.88481 0.14288,1.26552 0.077,2.26335 -0.23819,3.60616 -0.23981,1.02108 -0.38882,1.90394 -0.331,1.96188 0.0583,0.0582 0.63323,-0.29722 1.27838,-0.78922 0.69306,-0.52863 2.02771,-2.15725 3.26222,-3.98074 2.31019,-3.41245 4.5922,-5.91257 5.39665,-5.91257 0.39411,0 0.47501,-0.116 0.32652,-0.47111 -1.30874,-3.12904 -1.33129,-3.3269 -1.3779,-12.07541 -0.0407,-7.78177 -0.27198,-11.12497 -0.90871,-13.15985 -0.13923,-0.44428 -0.63063,-2.07554 -1.09278,-3.62543 -0.46215,-1.549827 -1.49472,-4.345829 -2.29462,-6.213248 -0.79989,-1.867403 -1.45434,-3.476158 -1.45434,-3.575013 0,-0.35138 1.28553,-0.17345 1.61507,0.223931 0.4521,0.544842 0.80749,0.509047 0.80749,-0.08148 0,-1.069008 1.56991,-3.528946 3.60479,-5.648541 l 2.14565,-2.234995 -2.67332,1.332683 c -3.20493,1.59767 -5.10861,2.191218 -7.02822,2.191218 -1.27156,0 -1.55338,-0.110688 -2.53179,-0.994663 -0.60547,-0.547116 -1.83624,-1.945182 -2.73497,-3.106922 -0.89874,-1.161756 -1.72862,-2.016308 -1.84417,-1.899016 -0.34159,0.346484 -1.54158,4.744354 -2.3147,8.480885 -1.08705,5.253517 -1.87577,5.816166 -1.76943,1.262105 0.0765,-3.271493 0.84715,-7.168845 2.22878,-11.270148 0.82992,-2.463523 0.92836,-2.93797 0.47667,-2.297243 -0.99176,1.407426 -3.77998,3.956513 -5.65799,5.17275 -1.84807,1.196838 -4.90361,2.49877 -5.86435,2.49877 -0.7899,0 -0.645,-0.5007 0.29558,-1.021894 2.6969,-1.493853 5.8947,-3.786499 7.44792,-5.339678 l 1.78681,-1.786834 -0.65714,-0.533127 c -0.36156,-0.292733 -2.05108,-1.357957 -3.75471,-2.366443 -3.19787,-1.892992 -4.49247,-2.966347 -4.18251,-3.467827 0.25201,-0.407388 1.13571,-0.358698 1.83871,0.100896 l 0.59618,0.390046 0.0407,-2.072449 c 0.0204,-1.139851 0.28621,-3.027134 0.58726,-4.193968 0.3013,-1.166851 0.45825,-2.014732 0.34974,-1.88423 -0.1092,0.130767 -0.73637,0.954055 -1.39475,1.830147 -0.65835,0.876109 -2.02471,2.305275 -3.03621,3.176023 -1.81367,1.561211 -1.8565,1.580544 -3.09554,1.400839 -1.49938,-0.217426 -3.66403,-1.014527 -6.77449,-2.494307 l -2.288,-1.088457 -0.16938,1.802019 c -0.0928,0.991161 -0.0664,3.619007 0.0583,5.839697 0.12545,2.220741 0.23125,4.175366 0.23656,4.343588 0.0116,0.430321 -1.53992,0.609463 -2.05023,0.23656 -0.5214,-0.381085 -0.9518,-6.690499 -1.00114,-14.673936 l -0.0325,-5.24897 -0.84556,3.36469 c -1.68532,6.706513 -3.47731,10.084844 -6.42537,12.113167 -1.28243,0.882315 -1.87975,0.668408 -0.93017,-0.333059 0.94829,-1.000105 2.11485,-2.789761 2.68395,-4.117499 0.85004,-1.98292 1.90092,-5.865303 1.65439,-6.11187 -0.12413,-0.124129 -1.7286,-0.53369 -3.56618,-0.91046 -3.70768,-0.760542 -5.18598,-1.424436 -6.05943,-2.721191 -0.80875,-1.200688 -1.49211,-4.186435 -1.70187,-7.435426 l -0.17596,-2.730963 -0.22312,2.287917 c -0.48674,4.996363 -1.73493,8.094058 -3.73418,9.265489 -1.45427,0.85208 -3.9498,1.501603 -5.76936,1.501603 -1.37771,0 -1.42343,0.02041 -1.40836,0.74023 0.0204,0.9936 0.7625,3.580921 2.1115,7.365677 1.21345,3.404419 1.25229,4.493937 0.12247,3.432315 -1.4406,-1.353361 -2.88635,-4.637433 -5.43492,-12.345761 -0.90556,-2.738865 -1.82649,-5.585431 -2.04643,-6.325661 -0.22026,-0.740231 -0.34485,-0.982482 -0.27726,-0.538122 0.0675,0.444228 0.23695,2.57149 0.37702,4.727444 0.25975,4.004804 0.0717,7.597026 -0.52865,10.077227 -0.34403,1.422561 -1.82759,4.745897 -2.5228,5.65269 -0.3933,0.513013 -0.41296,0.491224 -0.42134,-0.468291 -0.003,-0.553803 0.22799,-1.885955 0.51747,-2.960887 0.44538,-1.655902 1.08929,-6.156211 1.08929,-7.614816 0,-0.28744 -0.15831,-0.383939 -0.47111,-0.288253 -0.25936,0.07932 -1.59288,0.278479 -2.96403,0.441988 -3.02859,0.361967 -5.72736,0.02041 -7.78536,-0.972509 -1.75972,-0.853009 -3.76569,-3.058681 -4.90293,-5.391138 -0.47722,-0.978848 -0.92002,-1.727641 -0.98378,-1.663834 -0.0636,0.06356 0.32246,1.378668 0.85822,2.921957 1.72014,4.95378 1.31671,8.050663 -1.29518,9.942709 -0.61034,0.442037 -1.26613,0.803905 -1.45724,0.803905 -0.19096,0 -0.41912,0.115998 -0.50686,0.257718 -0.27279,0.440908 2.86252,5.143111 4.79378,7.190004 1.99325,2.112625 2.16231,2.848225 0.45433,1.976895 -2.88301,-1.470785 -6.06766,-5.567558 -9.8371,-12.654541 -2.282491,-4.291231 -3.358667,-6.19106 -3.507158,-6.19106 -0.118819,0 0.205212,0.907888 2.149084,6.014524 2.155554,5.663144 3.121014,9.567997 3.305574,13.370045 0.12911,2.661931 0.0883,3.151032 -0.28989,3.464973 -0.79231,0.657555 -1.15524,-0.05045 -1.33119,-2.593925 -0.13475,-1.946561 -1.219042,-6.84289 -1.599894,-7.223742 -0.05709,-0.05742 -1.004138,0.748461 -2.104211,1.790502 -4.895433,4.637599 -6.789554,5.022965 -11.210872,2.281129 l -1.135619,-0.704252 0.967795,2.037848 c 1.591497,3.351265 1.504324,5.374577 -0.307403,7.130479 l -0.927719,0.899092 3.041954,1.416255 c 1.672961,0.778946 3.463264,1.49533 3.978385,1.591945 1.441661,0.270347 1.756018,0.533691 1.297319,1.086382 -0.484503,0.584007 -2.326499,0.397381 -4.977561,-0.504649 -2.68231,-0.912535 -4.278287,-1.776181 -8.152107,-4.411312 -7.085357,-4.819793 -8.967712,-6.007073 -9.24868,-5.833374 -0.166114,0.103054 1.99827,2.432441 5.070343,5.459044 5.215216,5.138067 7.780516,8.12549 9.666057,11.256773 0.995708,1.653495 1.1247,2.389826 0.554899,3.168805 -0.341606,0.467211 -0.466631,0.3929 -1.899498,-1.13386 -1.814,-1.932057 -3.181084,-2.493311 -6.073402,-2.493311 -1.420205,0 -2.201076,0.147362 -3.037058,0.574148 -2.376965,1.212653 -5.243179,0.924832 -10.001986,-1.004171 -0.876225,-0.355445 -1.645729,-0.593183 -1.709968,-0.52921 -0.06439,0.06439 0.936266,1.228152 2.223413,2.586309 4.600625,4.854611 4.768781,5.409741 3.379443,11.158561 -0.572539,2.36877 -1.000039,4.34835 -0.950006,4.39908 0.192583,0.19625 5.181064,0.84614 6.50603,0.84793 1.459336,0.001 2.776569,0.36195 2.776569,0.75962 0,0.43083 -1.303592,0.83105 -3.296734,1.01167 -3.65364,0.33142 -8.374097,-0.62818 -14.051132,-2.85531 -1.47281,-0.57778 -2.71598,-1.01245 -2.762562,-0.96576 -0.04481,0.0448 1.764033,1.31374 4.023655,2.81587 2.259656,1.50212 5.01261,3.49086 6.117695,4.41948 3.353571,2.81798 6.521247,7.05139 6.099157,8.15125 -0.14703,0.38354 -0.247943,0.36889 -0.876175,-0.12496 -0.390444,-0.30738 -0.82435,-0.55827 -0.964161,-0.55827 -0.139563,0 -0.789816,-0.53593 -1.444715,-1.19058 -1.191627,-1.19171 -2.761783,-1.9477 -3.475959,-1.67365 -0.20888,0.0806 -0.680671,0.60607 -1.048082,1.16859 -0.824548,1.26224 -1.235354,4.00009 -1.256944,8.37727 -0.01659,3.42048 -0.253237,5.32376 -0.651381,5.24905 -0.42531,-0.0798 -0.995194,-2.02189 -1.031221,-3.5129 -0.03253,-1.36325 -0.05045,-1.39477 -0.581119,-1.01008 -1.517351,1.10112 -2.78704,1.56587 -4.602053,1.68444 l -1.901538,0.12413 -1.597753,-1.29453 c -0.878747,-0.71202 -3.002956,-2.61102 -4.720457,-4.22005 -5.579241,-5.22687 -8.203369,-6.82837 -11.858934,-7.23735 -3.49954,-0.39167 -8.050281,0.67325 -8.022684,1.87719 0.0033,0.2459 0.61308,1.09334 1.349892,1.88329 l 1.339587,1.43633 2.351308,-0.31514 c 2.358196,-0.31553 5.665319,-0.27889 4.90851,0.0558 -0.222304,0.0977 -1.705935,0.44428 -3.297464,0.76934 -1.591497,0.32533 -2.893596,0.68731 -2.893596,0.80474 0,0.47164 1.509253,1.96549 2.33405,2.3101 0.594594,0.24876 2.051042,0.36724 4.503762,0.36724 3.317063,0 5.337072,0.29682 4.912011,0.722 -0.09276,0.0928 -1.916308,0.17995 -4.052398,0.1946 -2.136057,0.0166 -3.96788,0.10986 -4.070652,0.21214 -0.103054,0.10305 0.514673,1.01114 1.371681,2.01883 0.857241,1.00764 2.034878,2.58916 2.616976,3.51439 l 1.05832,1.68237 2.594424,0.0116 c 1.740103,0.003 2.815981,0.13641 3.267345,0.39413 0.615155,0.35136 0.424729,0.38556 -2.220691,0.39451 -2.629754,0.0116 -2.893678,0.0558 -2.893678,0.50629 0,1.07442 0.900237,1.45225 3.489334,1.46438 1.337877,0.003 2.432574,0.0583 2.432574,0.11567 0,0.30292 -2.028904,0.88429 -3.086942,0.88429 -0.670897,0 -1.219888,0.0558 -1.219888,0.12296 0,0.0675 0.858335,1.76342 1.907429,3.76841 2.166376,4.14043 2.202453,4.16363 4.594436,2.95149 0.904154,-0.45825 1.460264,-0.60343 1.636203,-0.42749 0.315933,0.31552 -1.405883,1.52809 -2.574394,1.81277 -0.419103,0.10222 -0.824266,0.34769 -0.900403,0.54591 -0.181581,0.4728 0.711571,2.80032 1.0745,2.80032 0.154664,0 1.050239,-0.50128 1.990304,-1.11359 0.939966,-0.61246 1.785657,-1.03695 1.879252,-0.94336 0.155991,0.156 -0.178727,0.48169 -2.704746,2.63642 -0.930657,0.79392 -0.944098,0.55549 0.268305,4.75097 l 0.412399,1.42741 0.986183,-0.72767 c 0.542602,-0.40021 1.500988,-1.21918 2.130199,-1.81991 1.29264,-1.23423 1.559153,-0.85116 0.358698,0.5158 -0.431948,0.49176 -0.886,1.06478 -1.009399,1.27321 -0.1233,0.20848 -0.744512,0.72001 -1.380311,1.13664 -0.81645,0.53483 -1.106545,0.88306 -0.987576,1.18493 0.09276,0.23533 0.236958,1.30552 0.320015,2.37878 0.08297,1.0734 0.260987,1.95152 0.394941,1.95152 0.415203,0 1.634975,-0.7173 3.130504,-1.84114 2.740043,-2.05907 4.795349,-5.42507 5.568321,-9.11945 0.390461,-1.86586 0.859249,-2.49483 1.865577,-2.50234 1.227024,-0.0116 1.369043,-0.34605 1.015506,-2.40757 -0.442037,-2.57651 -0.412432,-3.34485 0.155992,-4.04628 0.447613,-0.55326 0.509678,-0.56331 0.859331,-0.14205 0.207237,0.25 0.428596,1.17254 0.49232,2.05079 0.06356,0.87813 0.211717,1.65615 0.328976,1.72879 0.573751,0.35419 1.993906,-1.48307 3.375278,-4.36749 1.47223,-3.07416 2.043292,-3.62405 2.218982,-2.13662 0.14089,1.19309 -0.688405,3.20521 -2.239958,5.43417 l -1.459252,2.09649 1.537431,0.51525 c 2.406918,0.80692 3.824351,1.80434 3.824932,2.69144 2.16e-4,0.42916 -0.147031,0.74018 -0.35055,0.74018 -0.192998,0 -1.352663,-0.48449 -2.577248,-1.07669 -2.319546,-1.12173 -3.801467,-1.38642 -3.801467,-0.67908 0,0.80068 1.372279,4.01021 2.809427,6.5708 0.811272,1.44549 1.606316,2.97346 1.766804,3.39544 0.288253,0.75794 0.322057,0.72105 2.77018,-3.01862 1.363201,-2.08223 3.20533,-4.9544 4.09357,-6.38255 1.601619,-2.57486 1.618977,-2.59172 2.086122,-2.01895 0.259362,0.31758 0.471079,0.81425 0.471079,1.10348 0,1.00692 -1.185288,3.33624 -3.162383,6.21472 l -1.990055,2.89721 1.34571,-0.53035 c 2.740774,-1.08033 4.71372,-1.95205 5.326269,-2.35342 0.735385,-0.4817 1.979717,-0.27768 1.979717,0.3245 0,0.21903 -0.134751,0.39857 -0.300068,0.39857 -0.63019,0 -4.705638,2.61955 -6.171196,3.96664 -0.843401,0.7752 -1.993624,2.07758 -2.556057,2.89428 l -1.022674,1.48485 0.909282,1.27791 c 3.473121,4.8815 6.261538,8.03441 9.03892,10.22029 l 1.101616,0.86701 1.387065,-2.92107 c 1.365773,-2.87603 2.275088,-5.78224 2.617905,-8.36658 0.176702,-1.3321 0.791326,-1.97779 1.22782,-1.28989 0.865555,1.3641 -1.435953,11.05344 -4.845549,20.39926 -0.459345,1.25837 -0.686463,2.0569 -0.505147,1.77439 1.851853,-2.88752 10.363438,-11.76178 12.393023,-12.92125 1.281173,-0.73188 2.071303,-0.77005 2.064765,-0.10023 -0.0013,0.19014 -1.005499,1.38792 -2.230432,2.66266 -1.988711,2.06964 -3.579179,4.43698 -4.066337,6.05266 -0.140061,0.46606 0.100233,0.74165 1.382667,1.58457 0.853988,0.56116 2.340074,1.65693 3.30236,2.43497 2.086139,1.68665 3.954616,2.81331 5.787336,3.48978 0.74023,0.2732 1.54472,0.66474 1.7877,0.87018 0.38801,0.32817 0.51243,0.27443 1.01938,-0.43755 0.31757,-0.44594 0.83533,-1.39166 1.15055,-2.10144 0.58824,-1.32429 0.60221,-1.67268 0.38515,-9.61043 -0.0949,-3.47515 1.35124,0.003 2.11656,5.08992 0.83273,5.5352 0.80452,7.03602 -0.29356,15.61226 l -0.13807,1.07669 0.46382,-0.80757 c 0.25528,-0.44428 1.20734,-2.69054 2.11578,-4.99202 1.90516,-4.82699 3.63373,-8.11159 5.37557,-10.21451 0.67364,-0.81318 1.22475,-1.57024 1.22475,-1.68236 0,-0.37622 0.47891,-0.20846 0.64556,0.22596 0.0989,0.25772 -0.85903,2.47663 -2.39381,5.54516 -1.40721,2.81359 -2.55858,5.26423 -2.55858,5.446 0,0.38677 7.19235,2.73066 12.43252,4.0515 l 3.58349,0.90317 0.18648,-0.98726 c 0.51132,-2.70967 -0.0204,-6.89211 -1.39138,-10.93528 -0.70843,-2.08956 -0.76613,-2.46241 -0.43309,-2.79565 0.33304,-0.33306 0.5538,-0.0501 1.65404,2.14198 3.18485,6.33832 5.64873,14.32558 5.80287,18.81165 0.0166,0.51804 0.1934,-0.6326 0.39086,-2.5572 0.40024,-3.91113 1.53018,-10.78183 2.22041,-13.50345 0.35259,-1.39041 0.58869,-1.83496 1.06677,-2.00886 0.50686,-0.18442 0.66852,-0.10339 0.92691,0.46382 0.25773,0.56582 0.1218,1.72965 -0.77147,6.60077 -0.7035,3.83637 -0.98805,5.97341 -0.81004,6.08346 0.4996,0.30902 7.51465,0.11882 11.44209,-0.30903 2.1255,-0.23207 3.92961,-0.42189 4.0092,-0.42189 0.0793,0 0.0778,-0.87821 -0.003,-1.95157 -0.18321,-2.39771 -0.91297,-4.30484 -2.64164,-6.90384 -0.72854,-1.09529 -1.32465,-2.19346 -1.32465,-2.44039 0,-0.24715 -0.42416,-0.82423 -0.94205,-1.283 -1.05788,-0.93655 -1.13342,-1.1937 -0.50409,-1.71616 0.38394,-0.31839 0.60706,-0.18037 1.79726,1.11108 3.39482,3.68389 5.69317,8.33336 8.55968,17.31585 0.92687,2.90439 1.72711,5.23878 1.77834,5.18754 0.0504,-0.0501 -0.26912,-2.44159 -0.71194,-5.31193 z m -15.76326,-8.92 c -0.0644,-0.18484 -0.29845,-1.14297 -0.52029,-2.12863 -1.03636,-4.59823 -4.57449,-13.5211 -5.97519,-15.06892 -0.64871,-0.71687 -0.21578,-1.11241 0.69987,-0.63905 1.30759,0.67624 3.57732,4.83008 4.97741,9.10948 0.9798,2.99467 1.01835,2.97478 1.47464,-0.76141 0.75636,-6.19358 1.21949,-8.20981 1.88571,-8.20981 0.15549,0 0.37375,0 0.48506,0 0.36114,0 0.25243,1.69781 -0.26709,4.1722 -0.60306,2.87342 -1.0389,8.74255 -0.76177,10.25823 0.1384,0.7586 0.0916,1.171 -0.16163,1.40721 -0.19665,0.18404 -0.35747,0.60795 -0.35747,0.94264 0,1.01293 -1.1907,1.75198 -1.47914,0.91806 z m 22.27837,-5.65273 c -0.57872,-0.92531 -1.46337,-2.40915 -1.96578,-3.29738 -1.91176,-3.37997 -4.57037,-7.10117 -6.64173,-9.29609 -1.1826,-1.25319 -2.29248,-2.54812 -2.46633,-2.87753 -0.28174,-0.53369 -0.24306,-0.61741 0.35708,-0.76796 0.54316,-0.13641 0.81623,0.003 1.41559,0.73363 0.4085,0.49623 1.35915,1.56872 2.11252,2.38295 2.55513,2.76158 4.98314,5.67214 5.2859,6.33673 0.34321,0.75258 0.86696,0.90825 0.6423,0.19054 -0.26137,-0.835 -0.93159,-4.69427 -1.36148,-7.84052 -0.23045,-1.68444 -0.48788,-3.33869 -0.5725,-3.67613 -0.0843,-0.33752 -0.0166,-0.86696 0.14736,-1.1768 0.32816,-0.61328 1.0901,-0.77077 1.0901,-0.22516 0,1.60284 1.02943,8.28244 2.14377,13.90984 0.74554,3.76509 1.35549,6.9447 1.35549,7.06586 0,0.61459 -0.59798,0.0501 -1.54236,-1.46206 z m -43.62266,0.53816 c -0.16693,-0.33304 -0.48955,-1.90653 -0.71682,-3.49647 -0.72285,-5.05717 -1.47354,-8.01543 -2.52361,-9.94445 -1.01176,-1.85859 -1.0259,-2.2804 -0.0664,-1.97585 1.25372,0.39778 1.95608,1.89868 3.11221,6.64954 l 1.11652,4.58843 1.299,-3.19317 c 1.38227,-3.39804 2.28192,-5.29225 2.91318,-6.13354 0.37783,-0.50294 0.40103,-0.49846 0.8355,0.16412 0.43198,0.65953 0.41464,0.73954 -0.52812,2.40196 -1.10145,1.94219 -1.99082,4.11906 -3.47946,8.51643 -0.56386,1.66546 -1.16761,3.02823 -1.34174,3.02823 -0.17426,0 -0.45321,-0.27279 -0.62013,-0.60568 z m -21.96625,-10.38498 c -0.0762,-0.12297 0.0407,-0.87996 0.25162,-1.68232 0.91518,-3.42463 1.52509,-7.32411 1.6175,-10.34167 0.0778,-2.54445 0.18159,-3.24751 0.48842,-3.31221 0.9337,-0.19665 1.24676,4.36119 0.5788,8.42658 -0.21905,1.33242 -0.40023,2.5243 -0.40307,2.64864 -0.003,0.12413 0.46882,-0.37254 1.04717,-1.1047 1.15862,-1.46573 4.0897,-4.14609 5.41586,-4.95262 0.49456,-0.30047 1.06647,-0.44594 1.3729,-0.34851 0.45542,0.14504 0.37212,0.27483 -0.62953,0.98505 -1.76058,1.24794 -3.60186,3.11141 -5.13311,5.19506 -2.97703,4.0511 -4.16273,5.20589 -4.60696,4.48703 z m 87.18494,-4.65049 c -0.59219,-0.44257 -2.29638,-1.93793 -3.78698,-3.32317 -3.19672,-2.9705 -5.58711,-4.58402 -7.71961,-5.21061 -1.09434,-0.32124 -1.54781,-0.58813 -1.54809,-0.90997 0,-0.69589 0.32734,-0.76295 1.81282,-0.37092 1.60361,0.42302 6.89883,3.16748 7.89185,4.09029 0.37825,0.35134 0.77266,0.639 0.87654,0.639 0.10389,0 -0.71367,-1.80195 -1.81672,-4.00441 -1.91133,-3.81625 -1.99146,-4.05012 -1.70618,-4.97967 0.40674,-1.32509 0.88054,-1.22534 1.4402,0.30333 0.95721,2.61412 2.2604,5.69299 4.00334,9.45804 0.99254,2.14398 1.75635,4.14951 1.71112,4.49285 l -0.0815,0.62012 z m -58.63767,-1.63682 c -0.21741,-0.3424 -0.48283,-1.28852 -0.58933,-2.10277 -0.29397,-2.24379 -0.76154,-3.55216 -1.86062,-5.20798 -0.54932,-0.82792 -0.92964,-1.61798 -0.84451,-1.75565 0.0851,-0.13757 0.56291,-0.25038 1.06184,-0.25038 h 0.9072 l 1.01358,3.24734 1.01355,3.24735 0.49232,-1.29757 c 0.51524,-1.35734 1.77748,-2.91024 2.16887,-2.66835 0.44705,0.27605 0.21742,1.61528 -0.44485,2.58953 -0.37009,0.54484 -0.67293,1.06929 -0.67293,1.16582 0,0.0966 -0.171,0.55714 -0.37946,1.02365 -0.20886,0.46662 -0.48899,1.20404 -0.62247,1.63893 -0.31351,1.02091 -0.7476,1.15014 -1.24314,0.37008 z m 18.00781,-1.75545 c -1.63786,-2.27602 -3.28791,-4.03957 -4.25532,-4.54806 -0.40739,-0.21415 -0.7402,-0.56764 -0.7402,-0.78591 0,-0.92316 1.56276,-0.11517 3.93547,2.03537 0.9743,0.88293 1.8804,1.60536 2.01351,1.60536 0.13309,0 0.24346,-0.87817 0.24592,-1.95153 0.003,-2.11947 0.39615,-3.23745 1.18756,-3.38989 0.46329,-0.0888 0.48789,0.0204 0.29884,1.34347 -0.11368,0.79247 -0.25039,2.77323 -0.30414,4.40173 -0.12545,3.78393 -0.45713,3.9638 -2.38184,1.28946 z m 23.15748,-1.69583 c -0.72345,-0.66479 -2.49104,-2.54112 -3.92794,-4.16968 -1.83024,-2.07427 -3.09854,-3.24681 -4.23578,-3.91575 -1.42477,-0.83813 -1.58229,-1.01091 -1.28813,-1.41315 0.18444,-0.25205 0.45487,-0.45822 0.60173,-0.45822 0.49179,0 3.69236,2.6191 5.72373,4.6841 1.10666,1.1249 2.09447,2.04533 2.1952,2.04533 0.10057,0 0.0116,-0.65892 -0.1995,-1.46418 -0.35136,-1.34594 -1.17633,-6.29642 -1.18003,-7.08219 -0.001,-0.18483 0.24104,-0.33629 0.53703,-0.33629 0.2964,0 0.53817,0.0558 0.53817,0.12296 0,0.96795 1.54248,8.61235 2.05169,10.1683 0.97296,2.97271 0.81721,3.31967 -0.81628,1.8188 z m -57.05777,-0.31677 c -0.0778,-0.6386 -0.20561,-2.10011 -0.285,-3.24781 -0.079,-1.14765 -0.3131,-2.49143 -0.51974,-2.98624 -0.35828,-0.85786 -0.4722,-0.91519 -2.45263,-1.23459 -3.15966,-0.50966 -6.46687,-1.53775 -9.22389,-2.8672 -3.281152,-1.58213 -3.297963,-1.84739 -0.26953,-4.25528 1.22139,-0.97105 2.54711,-2.04102 2.94601,-2.37766 0.74729,-0.63058 1.51093,-2.15339 2.75505,-5.49372 1.2097,-3.24792 3.67505,-6.06191 6.01484,-6.86541 1.19448,-0.41016 7.19805,-0.46997 12.31624,-0.12297 3.25384,0.22066 3.59831,0.19788 4.7636,-0.31758 1.14136,-0.50461 2.3614,-0.54711 2.3614,-0.0815 0,0.40739 -1.81435,1.90577 -2.82632,2.334 -1.46551,0.62025 -4.8903,0.56272 -8.47851,-0.14255 -3.54873,-0.69728 -4.55174,-0.69613 -6.04654,0.003 -1.58102,0.74317 -2.58438,1.94017 -6.09394,7.26982 -2.09293,3.17835 -3.53078,5.03831 -4.98482,6.44826 l -2.04349,1.98141 0.59654,0.48285 c 0.32816,0.26545 0.94768,0.48282 1.37677,0.48282 0.81592,0 1.15295,-0.37783 2.94114,-3.29743 1.31447,-2.14611 1.38141,-1.42208 0.0823,0.88831 -0.67021,1.19184 -1.15117,2.34255 -1.06881,2.55717 0.0855,0.2231 0.50182,0.39004 0.9713,0.39004 0.67171,0 0.98004,-0.22637 1.69079,-1.2426 1.30055,-1.85916 3.15725,-4.22972 3.15725,-4.03104 0,0.21009 -1.38796,2.83443 -2.28705,4.32442 -0.46159,0.76527 -0.55548,1.12509 -0.33021,1.26451 0.4398,0.27156 0.8932,-0.2899 2.96318,-3.6705 0.99405,-1.62326 1.80736,-2.86212 1.80736,-2.75304 0,0.10903 -0.49962,1.19148 -1.10968,2.40533 -0.61036,1.21391 -1.26708,2.65313 -1.45942,3.19826 -0.32979,0.93384 -0.31553,1.00035 0.23494,1.14803 1.87908,0.50408 2.88697,-0.15915 4.20279,-2.76587 0.45714,-0.9053 0.88127,-1.64596 0.94279,-1.64596 0.15267,0 -0.22516,1.25827 -0.75754,2.52279 -0.67333,1.59923 -0.60319,1.88285 0.34405,1.3928 1.14244,-0.59076 2.32243,-2.13035 3.60461,-4.70301 1.45225,-2.91408 1.64577,-2.12368 0.22312,0.91187 -0.81421,1.73746 -0.96062,2.23617 -0.60002,2.04319 0.62322,-0.33344 2.11171,-2.1639 3.4022,-4.18358 1.27136,-1.98972 3.11557,-3.98748 4.40178,-4.76825 0.53421,-0.3241 1.62837,-1.11916 2.432,-1.7668 1.64984,-1.32944 3.25199,-2.21601 4.00443,-2.21601 0.62095,0 1.51757,0.93509 1.27422,1.32888 -0.0973,0.15766 -0.41522,0.28622 -0.70697,0.28622 -0.79674,0 -3.41426,1.42545 -5.1392,2.79879 -1.63124,1.2986 -2.92135,2.80789 -6.14265,7.18601 -1.11033,1.50912 -2.62446,3.22874 -3.36469,3.8214 -1.54505,1.23698 -3.74386,2.33795 -4.67693,2.3418 -0.57758,0.003 -0.62232,0.0871 -0.46329,0.8774 0.0969,0.48117 0.31147,1.69248 0.47669,2.69177 0.16528,0.99934 0.40023,1.81697 0.52082,1.81697 0.12098,0 0.70844,-0.71972 1.30575,-1.59936 1.0905,-1.60574 1.98769,-2.43827 2.6278,-2.43827 0.48895,0 0.42752,0.79239 -0.0765,0.98582 -0.23125,0.0888 -1.30319,1.32681 -2.38188,2.75118 -2.6567,3.50808 -2.7758,3.59419 -2.9531,2.13469 z m -28.968185,-5.2762 c 0,-0.26424 0.617644,-1.08223 1.372494,-1.81694 3.117958,-3.03456 8.317857,-10.83939 8.317857,-12.4847 0,-0.69244 0.461586,-0.95887 0.953906,-0.55042 0.954221,0.79185 -0.166928,4.10654 -2.373247,7.01577 -3.154451,4.15965 -3.281069,4.35454 -2.720545,4.18725 0.278479,-0.0835 0.869405,-0.23656 1.313566,-0.34078 0.444278,-0.10454 2.069561,-0.66246 3.612037,-1.23985 l 2.804547,-1.04974 0.671909,0.67191 0.671876,0.67196 -0.784654,-0.0116 c -1.25711,-0.0116 -6.67032,2.10295 -11.209295,4.38093 -2.351342,1.18014 -2.630451,1.23988 -2.630451,0.56288 z m 52.498895,-1.92372 c -0.15317,-0.28623 -0.27931,-0.86172 -0.28054,-1.2786 -0.001,-0.41688 -0.19908,-1.12128 -0.44037,-1.56545 -1.21304,-2.23217 -1.24468,-2.32422 -0.91151,-2.64721 0.35991,-0.34934 0.65955,-0.0407 1.74389,1.81392 l 0.6156,1.05092 0.47111,-1.45469 c 0.62171,-1.92071 0.97601,-2.29947 1.55366,-1.66111 0.40741,0.45043 0.35666,0.64851 -0.74871,2.90197 -0.65231,1.33035 -1.19026,2.63074 -1.19552,2.88988 -0.0116,0.62672 -0.46048,0.59924 -0.80758,-0.0501 z m 17.77565,-3.68785 c -0.30698,-0.39004 -0.5577,-0.82035 -0.5577,-0.95617 0,-0.13558 -0.84789,-1.14274 -1.88425,-2.23764 -1.0363,-1.09494 -1.88421,-2.11818 -1.88421,-2.27399 0,-0.66393 1.19557,-0.1934 2.42062,0.95231 0.72649,0.67953 1.43216,1.16672 1.56819,1.08265 0.13558,-0.0843 0.32979,-0.67028 0.43088,-1.3028 0.22677,-1.42158 0.81571,-2.36128 1.47957,-2.36128 0.8241,0 0.85027,0.69956 0.0876,2.34764 -0.56565,1.22283 -0.72156,1.97252 -0.72888,3.50565 -0.003,1.07262 -0.0916,1.95079 -0.19177,1.95154 -0.10023,0.001 -0.43366,-0.31798 -0.74026,-0.70791 z m -26.2486,-2.22651 c -0.0826,-0.13392 -0.25203,-0.98208 -0.375,-1.88425 -0.1999,-1.46066 -0.17343,-1.64025 0.24023,-1.64025 0.27116,0 0.53479,0.28052 0.63356,0.67292 0.20967,0.83519 0.58132,0.86043 0.9903,0.0675 0.39248,-0.76135 1.34406,-1.81697 1.63778,-1.81697 0.54822,0 0.1384,1.11171 -0.7011,1.90395 -0.50795,0.47887 -1.00207,1.18462 -1.09832,1.56811 -0.28704,1.14473 -0.96273,1.71926 -1.32742,1.12913 z m 39.07055,-5.29852 c -0.21945,-0.41912 -1.04819,-1.25766 -1.84154,-1.86384 -1.51516,-1.15772 -1.91613,-1.90227 -1.17711,-2.18586 0.28623,-0.10953 0.74788,0.12778 1.31129,0.67377 0.47837,0.46383 0.96277,0.84312 1.07641,0.84312 0.11368,0 0.17101,-0.78583 0.12778,-1.74632 -0.0591,-1.31185 0.0285,-1.85223 0.34688,-2.17187 0.38801,-0.38802 0.4661,-0.12296 0.88453,2.9993 0.40309,3.0077 0.41074,3.47287 0.0647,3.81914 -0.34649,0.34648 -0.44315,0.30171 -0.79337,-0.36723 z m -26.1265,-4.74787 c -1.43628,-1.87556 -1.23056,-2.43808 0.33304,-0.91107 0.54767,0.53479 1.0803,0.97274 1.18314,0.97274 0.10305,0 0.36439,-0.42416 0.58055,-0.94212 0.43812,-1.04828 0.95943,-1.25014 0.95943,-0.37173 0,0.53983 -1.31395,2.89769 -1.62634,2.91873 -0.0806,0.003 -0.72376,-0.74474 -1.42998,-1.66691 z m -49.702194,0.40739 c 0,-0.2223 0.606774,-1.06861 1.348348,-1.88005 0.741608,-0.81139 1.853646,-2.34251 2.47129,-3.40247 1.70167,-2.92028 2.176714,-3.37357 2.448156,-2.33571 0.09575,0.36603 -0.401031,1.28899 -1.583664,2.94228 -0.947748,1.32485 -1.72321,2.52124 -1.72321,2.65866 0,0.13757 0.99931,0.31391 2.220741,0.39249 1.221348,0.0782 2.556919,0.29803 2.967893,0.48784 1.41682,0.65501 0.66621,0.92463 -2.653902,0.95329 -1.764199,0.0166 -3.722459,0.1535 -4.351653,0.3078 -0.962866,0.23575 -1.143999,0.21578 -1.143999,-0.12463 z m -17.49644,-1.05878 c 0,-0.29274 1.651139,-2.14208 3.933313,-4.40468 4.206432,-4.1703 6.854174,-7.4249 7.380812,-9.07251 0.425276,-1.3307 0.638935,-1.53502 1.066236,-1.02013 0.95603,1.15193 -1.4211,5.83007 -4.013765,7.8989 -1.09078,0.87044 -4.059766,4.26478 -4.059766,4.64143 0,0.10223 1.604922,-0.41746 3.566517,-1.15487 l 3.566633,-1.34094 3.016298,0.0944 c 1.68086,0.0501 3.145821,0.22393 3.308832,0.38721 0.532015,0.53196 -0.442037,0.96473 -2.754298,1.22269 -2.587769,0.28908 -8.828962,1.63514 -10.973183,2.36728 -0.81426,0.27766 -2.055805,0.59109 -2.759028,0.69583 -1.138739,0.16939 -1.278601,0.13525 -1.278601,-0.3147 z m 101.763554,-1.82597 c -0.41411,-0.49901 0.36808,-1.81025 0.94749,-1.58808 0.46943,0.17996 0.47443,0.3241 0.0448,1.24513 -0.38435,0.82799 -0.54595,0.88356 -0.99446,0.34323 z m -19.31787,-1.02744 c -0.82032,-0.57985 -1.58355,-1.74674 -1.317,-2.01333 0.07,-0.07 0.62644,0.27482 1.23714,0.76538 1.34973,1.08473 1.60688,0.85449 1.61304,-1.44382 0.003,-1.19448 0.0961,-1.5478 0.40797,-1.5478 0.45486,0 0.49955,0.61927 0.23085,3.19065 -0.15184,1.45241 -0.24267,1.65455 -0.74403,1.65455 -0.31391,0 -0.95658,-0.27278 -1.42786,-0.60563 z M 63.204654,145.4306 c -0.19094,-0.49736 0.31595,-1.73249 0.711007,-1.73249 0.151511,0 0.274827,0.29274 0.274827,0.65087 0,1.3128 -0.63145,2.00547 -0.98595,1.08162 z m 46.117856,-2.98865 c -0.60787,-0.60787 0.21416,-1.70476 1.27762,-1.70476 0.36562,0 0.35951,0.11351 -0.0504,0.93546 -0.44761,0.8995 -0.84735,1.14994 -1.22803,0.7693 z m 38.72571,-3.75613 c -0.22393,-1.49573 0.21864,-2.21543 0.65555,-1.06566 l 0.28092,0.73914 0.82846,-0.69708 c 0.96267,-0.81002 1.59601,-0.65945 0.87553,0.20806 -2.0459,2.46326 -2.37809,2.56587 -2.64059,0.81559 z m -73.084085,0.44819 c -0.142052,-0.26505 -1.12621,-0.80337 -2.187849,-1.19685 -1.900875,-0.7046 -3.566882,-0.84621 -7.37439,-0.62687 -0.920715,0.0558 -1.088705,-0.0204 -1.159333,-0.51748 -0.06588,-0.46273 0.124627,-0.64683 0.942123,-0.91202 1.858674,-0.60269 4.762791,-2.17688 6.736235,-3.65137 2.127178,-1.58928 2.498405,-1.72413 2.498405,-0.90735 0,0.7539 -1.904708,2.74819 -3.364358,3.52251 -0.666416,0.3538 -1.211674,0.71795 -1.211674,0.80989 0,0.19298 1.674637,0.49961 2.751411,0.50351 1.120053,0.003 3.607722,1.21349 4.12666,2.00548 0.254067,0.38842 0.415734,0.73494 0.358698,0.77032 -0.05692,0.0325 -0.49846,0.20357 -0.981138,0.37254 -0.75953,0.26709 -0.911921,0.24429 -1.134956,-0.17264 z m 98.351835,-0.51075 c 0.28215,-0.31799 0.67961,-0.57823 0.88351,-0.57823 0.20399,0 0.82105,-0.19096 1.37143,-0.42528 l 1.00079,-0.42526 -1.20505,-1.04806 c -0.6628,-0.57644 -1.54102,-1.18725 -1.95154,-1.35731 -0.69785,-0.28907 -0.94803,-0.76007 -0.59257,-1.11558 0.0851,-0.0843 0.9023,0.2626 1.81699,0.7713 1.76835,0.98374 3.24157,2.36327 3.07084,2.87551 -0.16246,0.48783 -2.3636,1.49976 -3.69587,1.69921 l -1.21124,0.18118 z m -71.21994,-1.0704 c -1.137,-0.39574 -2.141616,-0.79503 -2.232423,-0.88781 -0.09127,-0.0928 0.597163,-0.85937 1.528913,-1.70351 1.36603,-1.23763 1.71307,-1.44128 1.79222,-1.05194 0.0619,0.30455 -0.28336,0.80285 -0.93546,1.35063 l -1.03369,0.86779 0.66633,0.25691 c 2.36918,0.91396 2.95429,1.22188 2.95429,1.5546 0,0.50128 -0.31635,0.45658 -2.74018,-0.38679 z m 23.33219,0.13508 c -1.40421,-0.54931 -2.01888,-0.99383 -2.01888,-1.45949 0,-0.54655 2.91016,-3.36107 3.25513,-3.14789 0.53145,0.32856 0.18729,0.93993 -0.98179,1.74433 -1.56441,1.07638 -1.51356,1.28594 0.53311,2.1966 1.66327,0.74003 0.94777,1.34553 -0.78762,0.66645 z m 10.40979,0.12247 c -0.46441,-0.29436 0.0582,-2.4109 0.65216,-2.63875 0.61617,-0.23654 0.78726,0.12297 0.46495,0.9774 -0.19379,0.51415 -0.20234,0.86531 -0.0244,1.04294 0.58071,0.58067 -0.33467,1.09876 -1.09222,0.61841 z m -21.38127,-3.38021 c -1.80475,-0.64393 -1.87842,-0.82242 -0.95334,-2.3105 0.45044,-0.72496 1.04694,-1.52399 1.32507,-1.77568 0.47611,-0.43086 0.50571,-0.43086 0.50571,0.003 0,0.25486 -0.30292,0.86046 -0.67294,1.34569 -0.3701,0.48507 -0.67292,1.00391 -0.67292,1.15255 0,0.14869 0.4845,0.46044 1.07669,0.69316 0.62359,0.24469 1.07674,0.60197 1.07674,0.84833 0,0.51078 -0.34485,0.51862 -1.68492,0.0407 z m 51.33436,-4.05333 c -0.20397,-1.36008 -0.0166,-2.1207 0.4845,-1.9565 0.62241,0.20439 0.56994,3.16454 -0.0558,3.16454 -0.13641,0 -0.32898,-0.54374 -0.42862,-1.20804 z m -12.77232,-0.94544 c 0,-0.29598 0.14371,-0.53812 0.31919,-0.53812 0.17549,0 0.5933,-0.25772 0.92838,-0.57241 0.5893,-0.5538 1.44424,-0.54431 1.44424,0.0166 0,0.32817 -1.87801,1.63322 -2.3505,1.63322 -0.18771,0 -0.34159,-0.24265 -0.34159,-0.53815 z m -58.941036,-1.33379 c -0.692421,-0.97248 -3.190544,-2.23145 -6.04408,-3.04602 -1.172858,-0.33469 -2.174192,-0.73398 -2.225204,-0.88701 -0.2158,-0.64757 3.621396,-1.84987 6.855717,-2.14806 1.324768,-0.12181 2.437303,-0.39656 3.069319,-0.75811 1.105035,-0.63135 1.492956,-0.50294 1.039601,0.34446 -0.424745,0.79331 -2.637852,1.84473 -4.349379,2.0662 -2.648689,0.34242 -2.729539,0.48618 -0.777154,1.37689 2.129983,0.9719 3.355928,1.9721 3.729047,3.04232 0.24713,0.7079 0.21945,0.80505 -0.225159,0.80505 -0.278478,0 -0.760908,-0.35828 -1.072459,-0.79552 z m -12.659819,-0.4543 c -0.87737,-0.60855 -3.002823,-1.33674 -5.497693,-1.8835 -1.38748,-0.30414 -1.471184,-0.71254 -0.29519,-1.43946 0.52921,-0.32693 1.113515,-0.7461 1.298929,-0.9316 0.681634,-0.6816 5.424594,-3.39424 5.805479,-3.32029 0.710442,0.13807 0.610326,0.67154 -0.29884,1.59237 -1.211508,1.22702 -1.877509,1.72956 -3.158068,2.38282 -0.596718,0.30455 -1.084872,0.65986 -1.084872,0.7899 0,0.13027 0.920102,0.57196 2.044685,0.98216 2.082257,0.75937 2.372965,1.01551 2.216094,1.95211 -0.08513,0.50795 -0.125789,0.50347 -1.030657,-0.12463 z m 52.083495,-0.41302 c -0.2854,-0.73611 -0.0325,-1.68977 0.47335,-1.78622 0.5931,-0.11284 0.64688,0.95378 0.0868,1.71523 -0.34851,0.4733 -0.40103,0.48002 -0.55965,0.0709 z m 10.73994,-0.33548 c -0.22189,-0.57765 0.3815,-1.50152 0.98074,-1.50152 0.66099,0 0.66317,0.49066 0.003,1.2786 -0.58817,0.70502 -0.78446,0.74936 -0.98648,0.22312 z m -20.92172,-1.41174 c -0.61487,-0.61491 0.4348,-2.15721 1.16188,-1.70761 0.3302,0.20398 0.3192,0.31391 -0.0734,0.74781 -0.25324,0.28011 -0.46048,0.65054 -0.46048,0.82394 0,0.34486 -0.34444,0.41968 -0.62803,0.13558 z m -18.21423,-3.80827 c 0,-0.12047 -0.72679,-1.08264 -1.61506,-2.13793 -0.88831,-1.05523 -1.61507,-2.03315 -1.61507,-2.17296 0,-0.13956 0.81763,-0.31839 1.81698,-0.39657 0.99929,-0.0782 2.05452,-0.18281 2.34495,-0.23248 0.32898,-0.0558 0.56381,0.0835 0.62314,0.3701 0.0762,0.36846 -0.1767,0.49566 -1.27434,0.6411 -0.75312,0.10023 -1.44052,0.29679 -1.52736,0.43755 -0.0868,0.14089 0.14371,0.5788 0.51134,0.97389 1.11896,1.20067 1.68274,2.7372 1.00439,2.7372 -0.14819,0 -0.26954,-0.0989 -0.26954,-0.21905 z m 12.39128,-2.19415 c -0.69914,-0.69922 -1.96199,-3.21054 -1.81179,-3.60303 0.081,-0.21171 0.74487,-0.26669 2.10197,-0.17426 1.61909,0.10986 2.00018,0.22189 2.07404,0.61048 0.081,0.42526 -0.0689,0.4571 -1.41065,0.29965 -1.74465,-0.2052 -1.8749,0.0204 -0.87463,1.51755 1.15646,1.73018 1.10924,2.53848 -0.079,1.35031 z m -28.256314,-1.30213 c -0.513578,-1.45766 -2.03448,-3.89113 -3.470118,-5.55224 -1.443819,-1.67072 -4.916774,-4.66724 -6.422757,-5.54171 -1.729848,-1.00443 -3.385085,-3.45365 -2.236406,-3.30916 0.455429,0.0574 5.890992,2.06622 7.137133,2.63774 0.446518,0.20438 2.25393,0.74927 4.016735,1.21011 2.374077,0.62058 3.661954,0.81706 4.966825,0.75762 1.448863,-0.0659 1.777508,-0.003 1.850841,0.35545 0.06555,0.31838 -0.23656,0.51804 -1.119738,0.74023 -1.851903,0.46605 -4.332021,0.35542 -7.296095,-0.32573 l -2.691753,-0.61865 1.913587,1.90296 c 2.355125,2.3421 4.129298,5.71746 4.140018,7.87627 0.0033,0.9901 -0.417443,0.91884 -0.788272,-0.13309 z m 58.933234,-0.51748 c 0,-0.72704 0.17427,-1.55091 0.38842,-1.83937 0.38436,-0.5169 0.40022,-0.51639 1.41,0.0166 0.56177,0.296 1.06199,0.75033 1.11162,1.00939 0.11119,0.57963 -0.63503,0.63841 -0.85418,0.0675 -0.29682,-0.77385 -0.87595,-0.40347 -1.12955,0.72196 -0.37091,1.64711 -0.92651,1.66205 -0.92651,0.0204 z m -15.92864,0.67976 c -0.30739,-0.23859 -0.47891,-0.84873 -0.53815,-1.91818 l -0.0871,-1.56824 0.79068,0.15882 c 1.17106,0.2345 3.65075,1.42463 3.65075,1.75193 0,0.46717 -1.16252,0.31026 -1.88423,-0.25446 -1.0559,-0.82598 -1.30947,-0.67721 -1.39916,0.82098 -0.0733,1.22611 -0.12579,1.32497 -0.53255,1.00938 z m 29.49625,-3.94243 c 0.21049,-1.86305 0.23411,-1.85072 -1.32129,-0.68453 -1.0649,0.79824 -2.28679,1.26801 -2.28679,0.87914 0,-0.49179 1.48262,-1.70545 3.20294,-2.6223 1.87152,-0.9975 1.8339,-1.04632 1.34745,1.74694 -0.16197,0.93094 -0.48394,1.84938 -0.71504,2.0409 -0.37662,0.31189 -0.40022,0.16978 -0.2276,-1.36015 z m -59.98087,-0.73311 c -0.23249,-0.23247 -0.48899,-0.74718 -0.56985,-1.144 -0.081,-0.39655 -0.25935,-1.14534 -0.39615,-1.66355 -0.35137,-1.32815 -4.438995,-8.10876 -5.246883,-8.70335 -0.73014,-0.53759 -0.777535,-0.6704 -0.433092,-1.21423 0.317575,-0.5007 1.326327,0.0504 3.903077,2.12079 2.227278,1.79168 4.900308,3.49001 5.493248,3.49001 0.70892,0 2.2099,0.8673 2.2099,1.27693 0,0.66482 -2.07917,0.27401 -4.33672,-0.81503 -1.09232,-0.52702 -2.02493,-0.91934 -2.07244,-0.87191 -0.0504,0.0448 0.28622,0.82455 0.74177,1.7268 1.26501,2.50597 2.08891,6.22012 1.37983,6.22012 -0.13757,0 -0.44038,-0.19013 -0.67257,-0.42244 z m 32.68528,-4.40686 c 0,-0.47164 1.79686,-3.91491 2.23125,-4.27548 0.45821,-0.37986 0.87936,0.15018 1.62382,2.04448 0.81926,2.0846 0.38679,2.7769 -0.51134,0.81878 -0.28458,-0.61997 -0.63824,-1.16274 -0.78631,-1.20617 -0.14819,-0.0448 -0.63255,0.54488 -1.07671,1.30738 -0.76995,1.32168 -1.48043,1.95087 -1.48043,1.31101 z m -10.6114,-1.32754 c -0.0798,-0.12911 0.21499,-1.73419 0.65543,-3.56655 0.44036,-1.83232 0.87223,-3.69493 0.95965,-4.13901 l 0.15881,-0.807567 0.54375,0.670367 c 0.64987,0.80102 1.82474,3.07196 2.11772,4.09352 0.19217,0.67005 0.16693,0.70448 -0.30169,0.41187 -0.28094,-0.17548 -0.78147,-0.82814 -1.11123,-1.44985 -0.32979,-0.62162 -0.68099,-1.07996 -0.78042,-1.01851 -0.0994,0.0614 -0.51185,1.44581 -0.91624,3.07642 -0.68404,2.75741 -0.95882,3.32317 -1.32569,2.72951 z m 28.56385,-1.03907 c -0.0659,-0.11351 -0.20438,-0.93301 -0.3078,-1.82133 -0.10338,-0.88828 -0.25242,-1.88667 -0.33141,-2.21862 l -0.14289,-0.60359 -0.84617,0.60115 c -0.4655,0.3306 -1.47676,1.11408 -2.24749,1.741 -1.66828,1.35701 -2.20624,1.04441 -0.69617,-0.40472 1.57747,-1.51355 4.40605,-3.89751 4.49468,-3.78815 0.13525,0.16692 0.69903,4.63096 0.6987,5.53164 0,0.82248 -0.3701,1.39545 -0.6211,0.9624 z m 15.22352,-2.15418 c -0.47279,-0.16246 -0.42641,-0.63115 0.31105,-3.12751 0.35584,-1.20582 0.72681,-2.545439 0.82379,-2.976939 l 0.1767,-0.784572 -0.97981,0.747284 c -1.89754,1.447357 -6.58562,2.114297 -5.47765,0.779344 0.16495,-0.199089 0.50571,-0.361137 0.75741,-0.361137 0.25162,0 1.54287,-0.528099 2.8692,-1.173755 1.95303,-0.95052 2.70365,-1.500772 3.9474,-2.893628 1.20963,-1.354688 1.58926,-1.637913 1.78773,-1.333729 0.17385,0.266679 0.0407,0.808186 -0.44484,1.749679 -0.38353,0.749921 -1.31257,3.192103 -2.06545,5.427133 -0.91499,2.71638 -1.48042,4.02531 -1.70533,3.94792 z m -54.107,-2.22069 c -0.18403,-0.29396 -0.33752,-1.29337 -0.342,-2.22069 -0.003,-0.927319 -0.18404,-3.13958 -0.39778,-4.916126 -0.49122,-4.072228 -0.49623,-3.90306 0.11517,-3.90306 0.33955,0 1.03134,0.7355 2.0251,2.153763 1.55517,2.219397 2.88067,3.318889 4.3716,3.626242 1.19908,0.247131 1.56002,0.749922 0.94075,1.310363 -0.45823,0.414673 -0.59096,0.381483 -2.08514,-0.515784 -0.87782,-0.52697 -1.89885,-1.228684 -2.26895,-1.559286 -1.77716,-1.587249 -1.67305,-1.773161 -1.46007,2.607649 0.16047,3.304269 0.13027,3.951399 -0.18606,3.951399 -0.20805,0 -0.52808,-0.24104 -0.71193,-0.5348 z m -11.90852,-2.599134 c 0,-0.834572 -0.32572,-2.019113 -0.98147,-3.566551 -0.994659,-2.348089 -1.490563,-3.169518 -4.792591,-7.939062 -1.949464,-2.8157 -3.034386,-5.127396 -2.547642,-5.428278 0.31351,-0.193794 0.178743,-0.298027 3.910063,3.014274 5.0756,4.50547 7.38803,5.999854 9.30212,6.011304 1.23055,0.0033 1.83894,0.23125 1.83894,0.676224 0,0.790264 -2.64091,0.897267 -4.52013,0.183207 -1.29851,-0.493415 -4.157606,-2.301955 -5.050226,-3.194493 -0.580522,-0.580588 -0.612118,-0.654817 1.339616,3.148542 0.87366,1.702549 1.85989,3.942059 2.19159,4.976665 0.5415,1.688826 0.56374,1.957148 0.21863,2.624492 -0.56723,1.09685 -0.90895,0.90651 -0.90895,-0.506324 z m 32.46124,-4.54505 c -1.0719,-0.559014 -1.41334,-1.066485 -2.03207,-3.020131 -0.29272,-0.924865 -0.69629,-1.994071 -0.89641,-2.375969 -0.35259,-0.673187 -0.3815,-0.628314 -0.94262,1.467965 -0.31839,1.189303 -0.76258,2.602306 -0.98721,3.139946 -0.43865,1.04994 -1.03285,1.135287 -1.17507,0.168554 -0.0448,-0.321243 -0.19135,-0.584587 -0.3196,-0.584587 -0.12861,0 0.13193,-0.806261 0.57888,-1.791763 0.88623,-1.954543 1.84558,-5.382991 1.84558,-6.595709 0,-1.163267 0.6982,-0.939784 1.1857,0.379458 0.23248,0.629194 0.741,2.173577 1.13003,3.431949 0.78295,2.532856 1.46334,3.999875 2.4656,5.316229 0.74405,0.977304 0.44428,1.140199 -0.85286,0.463859 z m 17.08441,-1.939076 c -0.15268,-0.552691 -0.47779,-1.905886 -0.72301,-3.007784 l -0.44595,-2.003398 -0.47388,0.921645 c -0.26056,0.506857 -0.98081,1.496956 -1.60048,2.20023 -0.84944,0.963829 -1.31607,1.27855 -1.89556,1.27855 -0.8822,0 -1.23992,-0.37823 -0.73916,-0.781999 1.95629,-1.576761 2.41525,-2.136422 3.39123,-4.135754 0.59489,-1.218461 1.29563,-2.914389 1.55713,-3.768659 0.73669,-2.406155 1.04323,-1.802716 1.07433,2.115114 0.0204,3.04811 0.11517,3.715257 0.74023,5.422254 0.88934,2.428989 0.89564,2.764106 0.0504,2.764106 -0.53364,0 -0.71354,-0.192567 -0.93756,-1.004305 z m 14.06262,-1.33421 c -0.34689,-1.639538 -0.18607,-7.260631 0.28702,-10.043589 0.5944,-3.49267 0.57413,-3.562086 -0.54989,-1.880612 -2.26739,3.39169 -4.9221,5.912615 -6.7907,6.448579 -0.85227,0.244293 -0.84116,0.220678 0.64835,-1.388293 0.83359,-0.900403 2.16915,-2.559474 2.96801,-3.686896 0.79877,-1.127521 2.30285,-3.140112 3.34233,-4.472546 1.03952,-1.332385 2.21937,-3.058515 2.62202,-3.835802 0.74228,-1.432866 1.42746,-1.854093 1.42746,-0.877602 0,0.294359 -0.35055,1.783267 -0.77863,3.308218 -1.20034,4.274868 -1.71156,7.717571 -1.887,12.707595 -0.14089,4.005467 -0.21741,4.583765 -0.61648,4.660068 -0.33632,0.06439 -0.51245,-0.181183 -0.67294,-0.93912 z m -49.49738,-7.015376 c -0.0204,-3.973738 -0.0981,-4.602252 -1.25523,-10.026812 -1.77499,-8.322271 -1.54422,-8.291936 3.43701,0.452094 1.70187,2.987439 3.8297,6.423587 4.72851,7.635775 1.06962,1.442607 1.54287,2.295367 1.3698,2.468452 -0.95211,0.95218 -3.33221,-1.795149 -5.75272,-6.640598 -1.78265,-3.568509 -1.87952,-3.70535 -1.7231,-2.43513 0.40472,3.284604 0.46888,10.229087 0.10621,11.419569 -0.67247,2.206452 -0.8887,1.524038 -0.91033,-2.873217 z m 19.80537,-0.451513 c 0,-0.06306 0.44089,-1.910616 0.98032,-4.10497 0.53927,-2.194355 1.48425,-6.464908 2.10018,-9.490118 0.61597,-3.025226 1.24777,-5.543014 1.40409,-5.595072 0.16496,-0.05576 0.35991,0.558234 0.46493,1.462704 0.48282,4.159567 2.58524,12.670621 4.11399,16.654499 0.33426,0.870268 -0.75989,0.304947 -1.41353,-0.73014 -1.29709,-2.054693 -2.11385,-4.766126 -2.93739,-9.751089 -0.0944,-0.570332 -0.21701,-0.991493 -0.27197,-0.936 -0.0558,0.05576 -0.40674,1.787134 -0.78071,3.848099 -0.56577,3.118622 -0.88693,4.167218 -1.91485,6.252129 -0.67932,1.377871 -1.34977,2.505143 -1.48995,2.505143 -0.14006,0 -0.25486,-0.05012 -0.25486,-0.115168 z m 37.58505,123.734399 c -0.37008,-0.71569 -1.18311,-3.293 -1.78386,-5.65404 l -0.29111,-1.14539 -0.86409,0.43646 c -0.47502,0.24023 -1.13081,0.68037 -1.4568,0.97828 l -0.59277,0.54151 2.6116,2.78814 c 1.43632,1.53356 2.64497,2.78973 2.68576,2.7916 0.0407,10e-4 -0.0977,-0.32979 -0.3086,-0.73694 z m -75.53389,-6.7294 c 0.474978,-0.85125 1.348216,-2.18219 1.940005,-2.95753 0.602905,-0.78984 1.010015,-1.58194 0.925865,-1.80128 -0.1934,-0.5035 -1.236952,-1.18532 -2.266878,-1.48069 l -0.807855,-0.23208 -0.193396,2.72503 c -0.106207,1.49878 -0.284602,3.303 -0.396153,4.00948 -0.111517,0.70644 -0.172221,1.28451 -0.13392,1.28451 0.04066,0 0.457669,-0.6965 0.932598,-1.54775 z m 98.71681,-15.32251 c -0.77805,-1.1838 -1.54845,-2.38349 -1.71196,-2.66605 -0.26139,-0.45151 -0.35301,-0.46716 -0.75995,-0.12944 -0.25446,0.21132 -0.69311,0.83583 -0.97494,1.38829 l -0.51244,1.00436 2.61816,1.30158 c 1.44007,0.71594 2.64913,1.29092 2.68695,1.27781 0.0407,-0.0116 -0.56781,-0.99251 -1.34586,-2.17629 z M 75.642317,180.83565 c 0.639052,-0.43979 1.291545,-0.79947 1.449926,-0.79947 0.158813,0 0.287855,-0.41801 0.287855,-0.92918 0,-0.71044 -0.224744,-1.1473 -0.954404,-1.85602 -1.354406,-1.31541 -1.931857,-1.40893 -2.152651,-0.34851 -0.269119,1.2946 -1.642875,5.12192 -2.300214,6.41042 l -0.586744,1.15004 1.547072,-1.4139 c 0.850852,-0.77765 2.069943,-1.77366 2.709028,-2.21341 z M 203.97409,161.46 c 1.88043,-0.58079 2.94997,-1.51772 3.92314,-3.43648 1.41506,-2.79013 1.49097,-7.24674 0.16814,-9.87266 -1.31028,-2.60109 -2.77351,-3.20101 -4.16476,-1.70769 -0.45379,0.48732 -0.54652,0.95163 -0.54985,2.75581 -0.003,2.60291 -0.40553,3.59175 -0.65241,1.60978 -0.59403,-4.7727 -1.18803,-5.64724 -4.20139,-6.18601 -3.77269,-0.67457 -7.46648,-0.34363 -7.17326,0.6423 0.0737,0.24796 0.69688,2.57089 1.38462,5.16173 1.47713,5.56456 3.04028,9.07871 4.70893,10.58625 1.03704,0.93693 1.19053,0.98834 2.94912,0.98834 1.09811,0 2.57031,-0.22066 3.60784,-0.54149 z m 20.37299,-3.02521 c -0.001,-0.0407 -0.36561,-0.78087 -0.80752,-1.65298 -0.44199,-0.87215 -0.80415,-1.75036 -0.80415,-1.95152 0,-0.77855 0.55994,-0.30455 1.23748,1.04733 0.88073,1.75753 1.39703,2.35529 2.03434,2.35529 0.67326,0 0.64035,-0.11351 -0.44539,-1.53531 -1.43522,-1.87966 -1.16263,-2.33587 0.40965,-0.68541 0.74039,0.77728 1.48189,1.41317 1.6478,1.41317 0.16612,0 0.71625,-0.25611 1.22293,-0.56941 l 0.92129,-0.56935 -0.75491,-0.38882 c -1.32812,-0.68445 -2.40742,-1.95361 -3.88748,-4.57112 -1.79377,-3.17246 -2.68326,-4.2652 -4.03201,-4.95319 -1.22036,-0.6226 -1.10002,-0.79202 -1.73183,2.43857 -0.51358,2.6275 -1.65428,6.42283 -2.09139,6.96042 -0.3029,0.37212 0.0325,0.75611 1.24961,1.42362 0.45268,0.24877 0.47611,0.17426 0.30576,-0.9618 -0.22962,-1.53013 0.16164,-1.61165 0.81199,-0.16937 0.48784,1.08167 1.29891,1.98166 2.02545,2.24727 0.40105,0.14654 2.69482,0.25163 2.68835,0.12297 z m -18.16597,-14.73752 c 0.0916,-0.14819 0.39125,-0.26914 0.6662,-0.26914 0.64028,0 1.97807,-1.69047 3.03666,-3.83734 1.10512,-2.24114 1.20606,-4.91372 0.24429,-6.46099 -1.22083,-1.96362 -4.17951,-3.07677 -7.30627,-2.74889 -2.06533,0.21619 -2.4406,0.54431 -5.40018,4.71869 -2.23811,3.15668 -4.24123,5.50714 -5.51789,6.47472 l -0.928,0.70334 1.42021,0.16693 c 4.03558,0.47445 8.39392,-1.379 11.82873,-5.03004 1.46803,-1.56054 1.94491,-1.47236 1.05988,0.19626 -0.61096,1.15168 -2.88497,3.66422 -3.31634,3.66422 -0.12579,0 -0.22839,0.47835 -0.22839,1.06333 0,0.72872 0.14819,1.14971 0.47106,1.33768 0.61006,0.35545 3.75348,0.37214 3.97035,0.0204 z m -15.14407,-17.63104 c 2.39507,-2.88855 3.41338,-9.04964 2.0834,-12.60459 -0.9162,-2.44865 -0.68055,-2.38053 -7.15159,-2.06732 -3.09573,0.14985 -6.23435,0.4236 -6.97458,0.60819 l -1.34586,0.33589 -0.0823,1.60441 c -0.0762,1.48477 0.50519,4.68816 0.99438,5.47994 0.11566,0.18729 1.34574,0.7627 2.73329,1.27855 1.38756,0.51582 3.07308,1.25943 3.74557,1.65228 1.57806,0.92186 3.5703,2.808 4.19882,3.97505 0.5454,1.01253 0.769,0.97991 1.79893,-0.2622 z m -3.19272,-6.70191 c -1.13369,-0.50742 -1.71689,-1.415 -1.71689,-2.67149 0,-1.4963 1.38909,-2.87417 2.89773,-2.87417 1.30995,0 2.3343,0.74423 2.74741,1.996 0.38517,1.16683 0.15019,2.07351 -0.76416,2.94952 -0.9076,0.86955 -2.06989,1.09002 -3.16409,0.60014 z m 17.90998,5.56808 c 1.58974,-1.92865 2.09072,-5.76774 1.21028,-9.27503 -0.55433,-2.20917 -0.93123,-2.55076 -3.00416,-2.72379 l -1.68237,-0.1404 v 1.01812 1.01814 l 1.204,-0.13608 c 1.10137,-0.12413 1.28499,-0.0558 2.15344,0.81368 1.07222,1.07223 1.22946,2.10337 0.52755,3.46033 -0.45772,0.88566 -2.01319,1.69838 -2.78265,1.45417 -0.44427,-0.14089 -0.45153,-0.0116 -0.12579,2.07424 0.64729,4.14408 0.60519,4.01051 1.16807,3.7093 0.27766,-0.14869 0.87657,-0.7213 1.33122,-1.27295 z m 2.71476,-13.42172 c 0,-0.66454 -5.36031,-6.84396 -5.93675,-6.84396 -0.285,0 -0.30129,2.65935 -0.0285,4.70266 l 0.17833,1.33796 2.42265,0.44989 c 2.73931,0.50906 3.36469,0.57458 3.36469,0.35301 z m -28.78692,-1.62228 c 4.59553,-0.72692 9.67844,-0.96052 12.32191,-0.56621 1.39228,0.20805 1.4296,0.19665 1.24928,-0.37173 -0.38639,-1.21678 -2.08707,-3.71739 -4.60746,-6.77372 -2.98618,-3.621146 -3.4234,-3.813647 -5.40332,-2.379436 -2.68261,1.943256 -4.52474,4.006566 -6.40387,7.172846 -2.13971,3.60515 -2.14631,3.61834 -1.82222,3.61834 0.13193,0 2.23112,-0.31512 4.66568,-0.7002 z"
           id="path741"
           inkscape:connector-curvature="0" />
      </g>
    </g>
    <g
       id="g4018"
       transform="matrix(3.3333332,0,0,3.3333332,-599.7222,-125.02775)">
      <g
         id="g4038"
         style="stroke:none"
         transform="matrix(0.12,0,0,0.11999999,211.66667,71.918332)"
         inkscape:export-xdpi="96"
         inkscape:export-ydpi="96" />
    </g>
  </g>
</svg>
