<?xml version="1.0" encoding="UTF-8" standalone="no"?>
<svg
   width="120"
   height="120"
   viewBox="0 0 120 120"
   fill="none"
   version="1.1"
   id="svg17"
   sodipodi:docname="favicon.svg"
   inkscape:version="1.2.2 (b0a8486541, 2022-12-01)"
   xmlns:inkscape="http://www.inkscape.org/namespaces/inkscape"
   xmlns:sodipodi="http://sodipodi.sourceforge.net/DTD/sodipodi-0.dtd"
   xmlns="http://www.w3.org/2000/svg"
   xmlns:svg="http://www.w3.org/2000/svg">
  <sodipodi:namedview
     id="namedview19"
     pagecolor="#ffffff"
     bordercolor="#000000"
     borderopacity="0.25"
     inkscape:showpageshadow="2"
     inkscape:pageopacity="0.0"
     inkscape:pagecheckerboard="0"
     inkscape:deskcolor="#d1d1d1"
     showgrid="false"
     inkscape:zoom="6.1916667"
     inkscape:cx="60"
     inkscape:cy="60.080754"
     inkscape:window-width="3440"
     inkscape:window-height="1367"
     inkscape:window-x="0"
     inkscape:window-y="0"
     inkscape:window-maximized="1"
     inkscape:current-layer="svg17" />
  <g
     clip-path="url(#clip0_1_36)"
     id="g10"
     transform="translate(0,11)">
    <path
       d="M 114.638,3.21268 H 4.25504 V 77.9632 H 114.638 Z"
       fill="#ffd23f"
       id="path2" />
    <path
       d="m 26.9184,23.1586 c 0.2405,-2.431 -1.5352,-4.5966 -3.9662,-4.8371 -2.4309,-0.2405 -4.5966,1.5352 -4.8371,3.9662 -0.2405,2.4309 1.5352,4.5966 3.9662,4.8371 2.431,0.2405 4.5966,-1.5352 4.8371,-3.9662 z"
       fill="#ee4266"
       id="path4" />
    <path
       d="m 45.2993,61.7668 c 0.9348,-2.2569 -0.137,-4.8443 -2.3938,-5.7791 -2.2569,-0.9349 -4.8443,0.1369 -5.7792,2.3938 -0.9348,2.2568 0.1369,4.8443 2.3938,5.7791 2.2569,0.9348 4.8443,-0.1369 5.7792,-2.3938 z"
       fill="#ee4266"
       id="path6" />
    <path
       fill-rule="evenodd"
       clip-rule="evenodd"
       d="M 49.5596,56.1164 H 112.23 V 8.28999 c 0,-0.28734 -0.233,-0.51966 -0.52,-0.51966 H 8.28999 c -0.28734,0 -0.51966,0.23232 -0.51966,0.51966 V 74.3011 c 0,0.1376 0.05503,0.2721 0.15284,0.3669 0.09782,0.0978 0.22926,0.1528 0.36682,0.1528 H 18.7044 V 41.294 c 0,-2.1458 1.7393,-3.8851 3.8852,-3.8851 h 70.416 c 0.1375,0 0.269,-0.0551 0.3668,-0.1529 0.0978,-0.0978 0.1528,-0.2292 0.1528,-0.3668 v -9.8948 c 0,-0.1375 -0.055,-0.269 -0.1528,-0.3668 -0.0978,-0.0978 -0.2293,-0.1528 -0.3668,-0.1528 H 30.9652 c -1.4398,3.234 -4.68,5.4899 -8.4428,5.4899 -5.0988,0 -9.2376,-4.1388 -9.2376,-9.2375 0,-5.0988 4.1388,-9.2376 9.2376,-9.2376 3.6589,0 6.8227,2.1305 8.3175,5.2179 h 66.5736 c 2.1458,0 3.8855,1.7393 3.8855,3.8852 v 18.7044 c 0,2.1459 -1.7397,3.8852 -3.8855,3.8852 H 26.9944 c -0.2873,0 -0.5196,0.2323 -0.5196,0.5196 v 29.122 h 85.2382 c 0.138,0 0.272,-0.0551 0.367,-0.1529 0.098,-0.0978 0.153,-0.2292 0.153,-0.3668 V 63.8867 H 49.6299 c -1.452,3.1974 -4.6769,5.4227 -8.4153,5.4227 -5.0987,0 -9.2376,-4.1389 -9.2376,-9.2376 0,-5.0987 4.1389,-9.2376 9.2376,-9.2376 3.6834,0 6.8655,2.1612 8.348,5.2822 z M 22.5193,18.5791 c -2.2895,0 -4.145,1.8585 -4.145,4.145 0,2.2865 1.8585,4.145 4.145,4.145 2.2865,0 4.145,-1.8585 4.145,-4.145 0,-2.2865 -1.8585,-4.145 -4.145,-4.145 z m 18.6922,37.3477 c -2.2895,0 -4.145,1.8586 -4.145,4.145 0,2.2865 1.8585,4.145 4.145,4.145 2.2865,0 4.145,-1.8585 4.145,-4.145 0,-2.2864 -1.8585,-4.145 -4.145,-4.145 z M 56.1164,82.5911 H 3.88517 C 1.73931,82.5911 0,80.8518 0,78.706 V 3.88517 C 0,1.73931 1.73931,0 3.88517,0 H 116.118 c 2.146,0 3.885,1.73931 3.885,3.88517 V 78.706 c 0,2.1458 -1.739,3.8851 -3.885,3.8851 H 63.8867 v 7.3394 H 78.706 c 2.1428,0 3.8851,1.7423 3.8851,3.8851 0,2.1428 -1.7393,3.8852 -3.8851,3.8852 H 41.294 c -2.1428,0 -3.8851,-1.7393 -3.8851,-3.8852 0,-2.1458 1.7393,-3.8851 3.8851,-3.8851 h 14.8224 z"
       fill="#222222"
       id="path8" />
  </g>
  <defs
     id="defs15">
    <clipPath
       id="clip0_1_36">
      <rect
         width="120"
         height="97.6977"
         fill="white"
         id="rect12" />
    </clipPath>
  </defs>
</svg>
