<?xml version="1.0" encoding="UTF-8"?>
<!-- Generator: Adobe Illustrator 16.0.3, SVG Export Plug-In . SVG Version: 6.00 Build 0)  -->
<!DOCTYPE svg PUBLIC "-//W3C//DTD SVG 1.1//EN" "http://www.w3.org/Graphics/SVG/1.1/DTD/svg11.dtd">
<svg version="1.1" id="Layer_1" xmlns="http://www.w3.org/2000/svg" xmlns:xlink="http://www.w3.org/1999/xlink" x="0px" y="0px" width="209.293px" height="49.4px" viewBox="0 0 209.293 49.4" enable-background="new 0 0 209.293 49.4" xml:space="preserve">
<g>
	<path fill="#CC0000" d="M149.037,31.111h0.598c0.646,0,0.727,0.146,0.727,1.228v3.941c0,0.742-0.08,1.017-0.904,1.017h-0.518v0.792   h4.521v-0.792h-0.225c-0.824,0-0.904-0.273-0.904-1.017v-2.649c0-1.519,0.807-2.356,1.986-2.356c0.871,0,1.42,0.517,1.42,1.662   v3.345c0,0.742-0.08,1.017-0.904,1.017h-0.225v0.792h4.424v-0.792h-0.42c-0.824,0-0.904-0.273-0.904-1.017v-3.813   c0-1.745-1.227-2.455-2.809-2.455c-1.311,0-2.23,0.549-2.779,1.857h-0.033v-1.793c-0.791,0.097-2.227,0.192-3.051,0.192V31.111   L149.037,31.111z M147.762,34.309v-0.372c0-2.713-1.082-3.924-3.684-3.924c-2.713,0-3.875,1.776-3.875,4.167   c0,2.392,1.162,4.166,3.875,4.166c2.697,0,3.506-1.389,3.521-2.777h-1.648c-0.016,1.213-0.5,1.843-1.678,1.843   c-1.988,0-2.004-2.003-2.004-3.103H147.762z M142.27,33.373c0-1.357,0.404-2.472,1.793-2.472s1.729,1.146,1.729,2.472H142.27z    M136.117,32.824c0,1.403-0.404,2.083-1.277,2.083c-0.855,0-1.404-0.613-1.404-2.067c0-1.405,0.484-1.938,1.389-1.938   C135.6,30.901,136.117,31.353,136.117,32.824 M136.795,39.444c0,0.742-0.5,1.52-2.033,1.52c-1.357,0-1.891-0.646-1.891-1.438   c0-0.855,0.484-1.565,1.938-1.565C136.213,37.96,136.795,38.622,136.795,39.444 M139.137,30.142l-2.391,0.21   c-0.451-0.129-1.195-0.339-1.873-0.339c-2.115,0-3.504,1.211-3.504,2.778c0,1.469,0.92,2.195,2.131,2.584v0.032   c-1.113,0.097-1.582,0.501-1.582,1.017c0,0.549,0.371,0.824,1.453,1.034v0.032c-1.131,0.111-2.471,0.711-2.471,2.019   c0,1.309,1.115,2.342,3.666,2.342c2.713,0,4.199-0.888,4.199-2.39c0-1.906-1.518-2.132-3.035-2.245   c-1.777-0.129-2.068-0.291-2.068-0.743c0-0.532,0.727-0.613,1.26-0.693l0.389-0.064c2.26-0.372,2.971-1.583,2.971-2.875   c0-0.694-0.307-1.324-0.711-1.631v-0.032h1.566V30.142z M120.064,31.111h0.598c0.646,0,0.727,0.146,0.727,1.228v3.941   c0,0.742-0.08,1.017-0.904,1.017h-0.518v0.792h4.521v-0.792h-0.225c-0.824,0-0.904-0.273-0.904-1.017v-2.649   c0-1.519,0.807-2.356,1.986-2.356c0.871,0,1.42,0.517,1.42,1.662v3.345c0,0.742-0.08,1.017-0.904,1.017h-0.225v0.792h4.424v-0.792   h-0.42c-0.824,0-0.904-0.273-0.904-1.017v-3.813c0-1.745-1.229-2.455-2.811-2.455c-1.309,0-2.229,0.549-2.777,1.857h-0.031v-1.793   c-0.793,0.097-2.229,0.192-3.053,0.192V31.111z M115.688,27.51c0,0.694,0.42,1.211,1.178,1.211c0.76,0,1.18-0.517,1.18-1.211   s-0.42-1.212-1.18-1.212C116.107,26.299,115.688,26.815,115.688,27.51 M114.588,31.111h0.6c0.645,0,0.727,0.146,0.727,1.228v3.941   c0,0.742-0.082,1.017-0.906,1.017h-0.516v0.792h4.715v-0.792h-0.42c-0.822,0-0.904-0.273-0.904-1.017v-6.202   c-1.033,0.097-2.471,0.192-3.295,0.192V31.111z M103.737,31.111h0.597c0.646,0,0.728,0.146,0.728,1.228v3.941   c0,0.742-0.081,1.017-0.904,1.017h-0.517v0.792h4.522v-0.792h-0.227c-0.824,0-0.904-0.273-0.904-1.017v-2.649   c0-1.519,0.807-2.356,1.986-2.356c0.873,0,1.422,0.517,1.422,1.662v3.345c0,0.742-0.082,1.017-0.904,1.017h-0.227v0.792h4.426   v-0.792h-0.42c-0.824,0-0.906-0.273-0.906-1.017v-3.813c0-1.745-1.227-2.455-2.809-2.455c-1.309,0-2.23,0.549-2.779,1.857h-0.031   v-1.793c-0.791,0.097-2.229,0.192-3.052,0.192V31.111L103.737,31.111z M94.903,34.18c0,2.392,1.162,4.166,3.876,4.166   c2.713,0,3.876-1.774,3.876-4.166c0-2.391-1.163-4.167-3.876-4.167C96.065,30.013,94.903,31.79,94.903,34.18 M96.97,34.18   c0-2.196,0.483-3.229,1.809-3.229c1.324,0,1.808,1.032,1.808,3.229s-0.483,3.23-1.808,3.23C97.454,37.411,96.97,36.377,96.97,34.18    M86.905,31.111h0.694c0.646,0,0.727,0.146,0.727,1.228v3.941c0,0.742-0.081,1.017-0.904,1.017h-0.517v0.792h5.152v-0.792h-0.856   c-0.824,0-0.905-0.273-0.905-1.017v-2.649c0-1.355,0.743-2.356,1.486-2.356c0.63,0,0.808,0.451,0.824,1.26h1.55v-2.325   c-0.371-0.13-0.823-0.194-1.292-0.194c-1.308,0-2.228,0.549-2.778,1.857h-0.031v-1.793c-0.791,0.097-2.229,0.192-3.149,0.192   V31.111z M83.142,32.824c0,1.403-0.404,2.083-1.276,2.083c-0.856,0-1.405-0.613-1.405-2.067c0-1.405,0.485-1.938,1.39-1.938   C82.625,30.901,83.142,31.353,83.142,32.824 M83.82,39.444c0,0.742-0.5,1.52-2.035,1.52c-1.355,0-1.889-0.646-1.889-1.438   c0-0.855,0.483-1.565,1.938-1.565C83.239,37.96,83.82,38.622,83.82,39.444 M86.162,30.142l-2.39,0.21   c-0.452-0.129-1.195-0.339-1.874-0.339c-2.115,0-3.504,1.211-3.504,2.778c0,1.469,0.92,2.195,2.132,2.584v0.032   c-1.115,0.097-1.583,0.501-1.583,1.017c0,0.549,0.371,0.824,1.453,1.034v0.032c-1.13,0.111-2.472,0.711-2.472,2.019   c0,1.309,1.115,2.342,3.667,2.342c2.714,0,4.199-0.888,4.199-2.39c0-1.906-1.519-2.132-3.037-2.245   c-1.775-0.129-2.066-0.291-2.066-0.743c0-0.532,0.727-0.613,1.26-0.693l0.387-0.064c2.262-0.372,2.973-1.583,2.973-2.875   c0-0.694-0.308-1.324-0.711-1.631v-0.032h1.566V30.142z"/>
	<path fill="#CC0000" d="M171.342,15.058h1.422v5.071c0,0.743-0.082,1.018-0.906,1.018h-0.516v0.791h5.152v-0.791h-0.855   c-0.824,0-0.904-0.273-0.904-1.018v-5.071h2.115v-0.937h-2.115v-1.6c0-0.969,0.387-1.438,1.049-1.438   c0.598,0,0.807,0.354,0.807,1.421h1.357v-2.131c-0.646-0.13-1.357-0.229-2.148-0.229c-2.938,0-3.035,1.777-3.035,3.975h-1.422   V15.058L171.342,15.058z M162.605,18.031c0,2.39,1.162,4.164,3.875,4.164s3.877-1.774,3.877-4.164c0-2.392-1.164-4.169-3.877-4.169   S162.605,15.64,162.605,18.031 M164.672,18.031c0-2.197,0.484-3.23,1.809-3.23s1.809,1.033,1.809,3.23   c0,2.194-0.484,3.229-1.809,3.229C165.156,21.26,164.672,20.226,164.672,18.031 M154.691,21.745l-0.775,1.971   c-0.211,0.565-0.42,0.904-1.035,0.904h-0.725v0.791h4.328V24.62h-0.533c-0.631,0-0.809-0.146-0.809-0.485   c0-0.258,0.162-0.629,0.26-0.856l3.164-7.572c0.227-0.533,0.371-0.791,0.711-0.791h0.355v-0.792h-3.424v0.792h0.678   c0.275,0,0.389,0.048,0.389,0.272c0,0.146-0.082,0.339-0.178,0.566l-1.471,3.762l-1.324-3.585   c-0.096-0.258-0.211-0.483-0.211-0.727c0-0.228,0.162-0.29,0.438-0.29h0.598v-0.792h-4.006v0.792h0.242   c0.389,0,0.582,0.242,0.906,1.017L154.691,21.745z M143.871,15.058h1.422v4.635c0,2.004,0.904,2.536,2.535,2.536   c1.566,0,2.471-0.773,2.471-2.504v-0.354h-1.355v0.822c0,0.694-0.26,1.001-0.84,1.001c-0.582,0-0.84-0.307-0.84-1.001v-5.136h2.584   v-0.937h-2.584v-2.277h-1.406c-0.129,1.631-0.484,2.1-1.986,2.277V15.058L143.871,15.058z M139.59,11.359   c0,0.694,0.422,1.211,1.18,1.211c0.76,0,1.18-0.517,1.18-1.211c0-0.693-0.42-1.212-1.18-1.212   C140.012,10.147,139.59,10.666,139.59,11.359 M138.492,14.962h0.598c0.646,0,0.727,0.146,0.727,1.228v3.94   c0,0.743-0.08,1.018-0.904,1.018h-0.516v0.791h4.715v-0.791h-0.42c-0.824,0-0.904-0.273-0.904-1.018v-6.201   c-1.033,0.097-2.471,0.193-3.295,0.193V14.962z M130.756,21.68c0.469,0.193,1.648,0.517,2.973,0.517   c1.695,0,3.488-0.727,3.488-2.615c0-1.229-0.613-1.696-2.004-2.148l-1.322-0.436c-0.744-0.242-1.164-0.68-1.164-1.292   c0-0.646,0.469-0.953,1.213-0.953c1.162,0,1.469,0.517,1.469,1.761h1.357V14.3c-0.471-0.21-1.553-0.438-2.779-0.438   c-1.906,0-3.23,0.89-3.23,2.358c0,1.26,0.904,1.938,2.779,2.503c1.486,0.452,1.711,0.81,1.711,1.405   c0,0.743-0.678,1.179-1.711,1.179c-1.115,0-1.422-0.743-1.422-1.889h-1.357V21.68z M122.373,14.962h0.695   c0.645,0,0.725,0.146,0.725,1.228v3.94c0,0.743-0.08,1.018-0.902,1.018h-0.518v0.791h5.152v-0.791h-0.857   c-0.822,0-0.902-0.273-0.902-1.018v-2.648c0-1.355,0.742-2.356,1.484-2.356c0.629,0,0.809,0.452,0.824,1.259h1.551v-2.325   c-0.373-0.129-0.824-0.193-1.293-0.193c-1.309,0-2.229,0.55-2.777,1.856h-0.031v-1.792c-0.793,0.097-2.23,0.193-3.15,0.193V14.962z    M121.193,18.16v-0.372c0-2.713-1.082-3.926-3.682-3.926c-2.715,0-3.877,1.777-3.877,4.169c0,2.39,1.162,4.164,3.877,4.164   c2.695,0,3.504-1.388,3.52-2.775h-1.646c-0.018,1.211-0.502,1.841-1.68,1.841c-1.988,0-2.004-2.003-2.004-3.101H121.193z    M115.703,17.222c0-1.354,0.404-2.471,1.793-2.471s1.729,1.146,1.729,2.471H115.703z M109.727,14.914h0.678   c0.371,0,0.469,0.097,0.469,0.21c0,0.129-0.033,0.29-0.08,0.401l-1.68,4.799h-0.033l-1.551-4.556   c-0.047-0.162-0.145-0.354-0.145-0.564c0-0.179,0.16-0.29,0.646-0.29h0.533v-0.792h-4.039v0.792h0.194   c0.354,0,0.452,0.097,0.661,0.63l2.506,6.492h1.904l2.502-6.573c0.162-0.42,0.309-0.549,0.646-0.549h0.211v-0.792h-3.424V14.914z    M100.746,11.359c0,0.694,0.42,1.211,1.179,1.211c0.76,0,1.18-0.517,1.18-1.211c0-0.693-0.42-1.212-1.18-1.212   C101.166,10.147,100.746,10.666,100.746,11.359 M99.647,14.962h0.597c0.646,0,0.728,0.146,0.728,1.228v3.94   c0,0.743-0.081,1.018-0.904,1.018h-0.518v0.791h4.717v-0.791h-0.42c-0.824,0-0.905-0.273-0.905-1.018v-6.201   c-1.033,0.097-2.471,0.193-3.294,0.193V14.962z M88.793,14.962h0.599c0.646,0,0.726,0.146,0.726,1.228v3.94   c0,0.743-0.08,1.018-0.904,1.018h-0.517v0.791h4.522v-0.791h-0.227c-0.823,0-0.904-0.273-0.904-1.018v-2.648   c0-1.519,0.808-2.356,1.986-2.356c0.872,0,1.421,0.517,1.421,1.663v3.343c0,0.743-0.08,1.018-0.904,1.018h-0.226v0.791h4.425   v-0.791h-0.42c-0.824,0-0.904-0.273-0.904-1.018v-3.813c0-1.742-1.228-2.454-2.81-2.454c-1.309,0-2.229,0.55-2.778,1.856h-0.031   v-1.792c-0.792,0.097-2.229,0.193-3.054,0.193V14.962L88.793,14.962z M84.886,21.937h3.052v-0.791h-0.42   c-0.823,0-0.904-0.273-0.904-1.018v-6.201c-1.034,0.097-2.471,0.193-3.295,0.193v0.84h0.598c0.646,0,0.728,0.146,0.728,1.228V18.4   c0,1.664-0.599,2.536-1.972,2.536c-0.92,0-1.437-0.469-1.437-1.422v-5.587c-1.034,0.097-2.471,0.193-3.295,0.193v0.84h0.598   c0.646,0,0.728,0.146,0.728,1.228v3.779c0,1.502,0.969,2.228,2.567,2.228c1.631,0,2.648-0.71,3.021-1.792h0.032V21.937z"/>
</g>
<polygon fill="#CC0000" points="66.915,14.006 38.239,49.398 40.518,49.4 69.197,14.004 "/>
<g>
	<path fill="#CC0000" d="M13.854,7.111c-0.208,0.031-0.502,0.114-0.674-0.258c-0.155-0.337,0.428-0.883,0.62-1.059   c0.25-0.229-0.074-0.475-0.266-0.207c-0.053,0.074-0.51,0.72-0.869,0.72c-0.556,0-0.523-0.651-0.523-0.651   s-0.621-0.396-0.621-1.653c0-1.118,0.738-1.653,0.738-1.653s0.006-0.637,0.504-0.621c0.496,0.018,0.818,0.701,0.851,0.748   c0.251,0.378,0.567,0.058,0.347-0.213C13.44,1.629,13.33,1.128,13.9,0.86c0.207-0.473,0.832-0.805,1.514-0.856l0.023-0.001   L15.458,0c0.683,0.056,1.308,0.388,1.515,0.859c0.569,0.269,0.46,0.77-0.062,1.403c-0.22,0.271,0.096,0.591,0.348,0.213   c0.031-0.047,0.354-0.73,0.852-0.748c0.497-0.016,0.503,0.621,0.503,0.621s0.738,0.535,0.738,1.653   c0,1.258-0.621,1.653-0.621,1.653s0.032,0.651-0.524,0.651c-0.357,0-0.814-0.646-0.869-0.72c-0.189-0.268-0.516-0.021-0.266,0.207   c0.193,0.176,0.777,0.722,0.621,1.059c-0.171,0.372-0.465,0.289-0.674,0.258c0,0-0.191,0.332-0.48,0.333   c1.444,1.079,3.711,0.469,4.016-0.321c0,0-0.385,0.076-0.381-0.326c0.003-0.244,0.251-0.376,0.586-0.425   c-0.069-0.154-0.104-0.339-0.093-0.54c0.033-0.566,0.423-1.041,0.873-1.063c0.449-0.019,0.786,0.424,0.753,0.989   c-0.016,0.285-0.124,0.547-0.284,0.74c0.329,0.111,0.562,0.28,0.53,0.478c-0.08,0.521-0.561,0.393-0.561,0.393   c-0.059,1.187,1.752,1.414,2.215,1.106c-0.184-0.685,0.09-0.891,0.299-1.075c0.149-0.132,0.592-0.403,0.653-0.443   c0.138-0.09,0.21-0.282,0.123-0.354c-0.081-0.065-0.263,0.049-0.349,0.146c-0.122,0.138-0.337,0.464-0.674,0.375   c-0.407-0.107-0.23-0.573-0.3-0.824c-0.434-1.583-0.063-2.688,1.52-3.35c0,0,0.603-0.635,1.143-0.35   c0.517,0.274,0.196,1.119,0.196,1.119l0.159,0.075c0.578-1.049,1.414-1.811,2.613-1.84c0.85-0.021,1.26,0.479,1.293,1.166   c0.074,1.527-1.488,0.959-1.366,0.388c0,0-0.378,0.039-0.586,0.371c0-0.096,0.013-1.003-0.798-0.523   c-0.23,0.138-0.639,0.822-0.669,0.909c-0.101,0.301,0.045,0.349-0.112,0.644c-0.123,0.229-0.295,0.282-0.368,0.442   C26.894,5.51,27,5.827,26.899,6.03c-0.124,0.248-0.295,0.268-0.407,0.492c-0.089,0.179-1.22,3.062-1.22,3.062   s0.45,0.288,0.364,0.716c-0.114,0.574-0.479,0.45-0.674,0.827c-6.142-1.58-12.499-1.589-19.068-0.027   c-0.197-0.344-0.547-0.239-0.659-0.8C5.149,9.873,5.6,9.585,5.6,9.585S4.469,6.702,4.379,6.523C4.268,6.299,4.097,6.28,3.973,6.031   C3.871,5.828,3.978,5.51,3.903,5.35C3.829,5.19,3.657,5.136,3.535,4.908C3.376,4.614,3.522,4.565,3.42,4.265   c-0.027-0.087-0.438-0.772-0.669-0.91C1.943,2.877,1.956,3.784,1.955,3.88C1.748,3.548,1.369,3.509,1.369,3.509   C1.491,4.08-0.071,4.649,0.002,3.121c0.033-0.688,0.443-1.188,1.293-1.166c1.2,0.029,2.035,0.791,2.613,1.84l0.16-0.075   c0,0-0.321-0.845,0.196-1.119c0.539-0.285,1.141,0.35,1.141,0.35C6.989,3.612,7.36,4.717,6.925,6.3   c-0.068,0.251,0.107,0.717-0.3,0.824C6.29,7.212,6.076,6.885,5.953,6.748C5.868,6.651,5.687,6.537,5.604,6.603   C5.519,6.675,5.588,6.867,5.728,6.957C5.789,6.997,6.231,7.269,6.379,7.4C6.588,7.586,6.862,7.792,6.68,8.475   c0.462,0.308,2.271,0.079,2.215-1.106c0,0-0.482,0.128-0.563-0.393C8.304,6.781,8.535,6.611,8.863,6.5   C8.704,6.306,8.597,6.045,8.58,5.76C8.545,5.193,8.882,4.752,9.333,4.77c0.449,0.021,0.84,0.495,0.873,1.063   c0.011,0.201-0.023,0.386-0.094,0.54c0.335,0.049,0.584,0.181,0.586,0.425c0.004,0.402-0.38,0.326-0.38,0.326   c0.304,0.79,2.571,1.4,4.016,0.321C14.043,7.443,13.854,7.111,13.854,7.111 M14.375,4.156c0,0.586,0.476,1.062,1.062,1.062   c0.587,0,1.062-0.476,1.062-1.062c0-0.587-0.475-1.063-1.062-1.063C14.85,3.094,14.375,3.569,14.375,4.156 M20.232,8.76   c0.457-0.013,1.351,0.174,1.351,0.174s-0.38-0.425-0.554-0.714c0,0-0.203,0.19-0.326,0.279C20.607,8.568,20.232,8.76,20.232,8.76    M15.437,7.829c-0.18,0.198-0.525,0.54-0.901,0.669c0,0,0.619-0.017,0.887-0.021h0.027c0.268,0.005,0.888,0.021,0.888,0.021   C15.959,8.369,15.614,8.027,15.437,7.829 M10.64,8.76c0,0-0.375-0.19-0.472-0.261C10.044,8.41,9.841,8.219,9.841,8.219   C9.667,8.509,9.289,8.933,9.289,8.933S10.183,8.747,10.64,8.76 M24.692,11.628c0.294,0.079,0.708,0.369,0.594,0.794   c-0.114,0.426-0.617,0.47-0.912,0.391c-0.295-0.078-0.708-0.368-0.594-0.794C23.895,11.593,24.397,11.549,24.692,11.628    M20.833,11.512l-0.895,0.752l-0.751-0.896l0.895-0.751L20.833,11.512z M6.601,12.812c-0.295,0.079-0.798,0.035-0.912-0.391   c-0.114-0.425,0.3-0.715,0.594-0.794c0.295-0.079,0.798-0.035,0.912,0.391C7.309,12.443,6.896,12.733,6.601,12.812 M14.555,11.228   c0-0.337,0.418-0.609,0.933-0.609s0.933,0.272,0.933,0.609c0,0.339-0.418,0.612-0.933,0.612   C14.973,11.842,14.555,11.567,14.555,11.228 M10.142,11.512l0.751-0.895l0.895,0.751l-0.751,0.896L10.142,11.512z M2.484,38.536   c0.102-0.407,0.536-0.316,0.536-0.316s-0.104-0.375,0.278-0.547c0.425-0.189,0.636,0.278,0.636,0.278l0.178,1.205l-1.285-0.044   C2.827,39.112,2.372,38.986,2.484,38.536 M4.305,36.541c0.101-0.406,0.534-0.315,0.534-0.315s-0.103-0.375,0.279-0.547   c0.424-0.189,0.634,0.277,0.634,0.277l0.179,1.206l-1.284-0.043C4.646,37.119,4.191,36.992,4.305,36.541 M6.124,34.546   c0.103-0.406,0.535-0.314,0.535-0.314s-0.103-0.375,0.279-0.548c0.424-0.188,0.635,0.278,0.635,0.278l0.178,1.205l-1.285-0.043   C6.464,35.124,6.011,34.997,6.124,34.546 M15.447,16.074c0.102-0.407,0.535-0.316,0.535-0.316s-0.104-0.375,0.279-0.547   c0.424-0.19,0.634,0.278,0.634,0.278l0.179,1.204l-1.285-0.043C15.79,16.65,15.333,16.523,15.447,16.074 M17.226,22.877   c0.102-0.407,0.535-0.316,0.535-0.316s-0.104-0.375,0.278-0.546c0.424-0.189,0.634,0.277,0.634,0.277l0.18,1.205l-1.285-0.042   C17.567,23.455,17.112,23.328,17.226,22.877 M19.36,20.616c0.102-0.407,0.535-0.315,0.535-0.315s-0.103-0.376,0.279-0.547   c0.425-0.191,0.635,0.277,0.635,0.277l0.178,1.205l-1.284-0.043C19.704,21.193,19.249,21.066,19.36,20.616 M21.497,18.353   c0.103-0.404,0.535-0.313,0.535-0.313s-0.103-0.375,0.28-0.547c0.423-0.191,0.634,0.275,0.634,0.275l0.178,1.206l-1.284-0.043   C21.838,18.932,21.382,18.805,21.497,18.353 M23.631,16.094c0.103-0.406,0.535-0.313,0.535-0.313s-0.103-0.375,0.279-0.548   c0.424-0.19,0.635,0.277,0.635,0.277l0.178,1.205l-1.284-0.043C23.975,16.672,23.52,16.545,23.631,16.094 M1.275,31.313   c0.102-0.405,0.535-0.314,0.535-0.314s-0.104-0.376,0.278-0.547c0.425-0.191,0.636,0.275,0.636,0.275l0.178,1.206L1.617,31.89   C1.618,31.891,1.163,31.764,1.275,31.313 M6.234,43.416C6.335,43.01,6.769,43.1,6.769,43.1s-0.104-0.375,0.278-0.547   c0.425-0.189,0.636,0.278,0.636,0.278l0.178,1.205l-1.285-0.043C6.577,43.994,6.122,43.867,6.234,43.416 M8.346,41.12   c0.102-0.406,0.534-0.315,0.534-0.315s-0.102-0.375,0.28-0.547c0.423-0.19,0.634,0.278,0.634,0.278l0.179,1.205l-1.284-0.043   C8.688,41.698,8.232,41.57,8.346,41.12 M10.458,38.824c0.103-0.406,0.535-0.315,0.535-0.315s-0.103-0.375,0.279-0.547   c0.424-0.191,0.634,0.277,0.634,0.277l0.179,1.205l-1.285-0.043C10.798,39.401,10.345,39.274,10.458,38.824 M12.568,36.527   c0.102-0.406,0.535-0.315,0.535-0.315S13,35.837,13.381,35.666c0.425-0.191,0.636,0.276,0.636,0.276l0.178,1.206l-1.285-0.043   C12.911,37.105,12.456,36.978,12.568,36.527 M21.868,26.765c0.103-0.406,0.535-0.314,0.535-0.314s-0.104-0.375,0.28-0.546   c0.423-0.191,0.634,0.275,0.634,0.275l0.178,1.206l-1.284-0.043C22.209,27.344,21.753,27.217,21.868,26.765 M23.771,24.688   c0.102-0.405,0.535-0.314,0.535-0.314s-0.104-0.376,0.278-0.547c0.424-0.191,0.636,0.275,0.636,0.275l0.178,1.206l-1.285-0.043   C24.113,25.266,23.659,25.139,23.771,24.688 M25.674,22.611c0.103-0.405,0.535-0.314,0.535-0.314s-0.103-0.375,0.279-0.547   c0.424-0.191,0.635,0.277,0.635,0.277l0.178,1.205l-1.284-0.043C26.018,23.189,25.563,23.062,25.674,22.611 M27.58,20.535   c0.103-0.406,0.535-0.315,0.535-0.315s-0.103-0.375,0.279-0.547c0.424-0.19,0.635,0.278,0.635,0.278l0.178,1.205l-1.285-0.044   C27.92,21.112,27.465,20.985,27.58,20.535 M12.8,45.454c0.103-0.406,0.535-0.315,0.535-0.315s-0.103-0.375,0.279-0.547   c0.424-0.19,0.635,0.278,0.635,0.278l0.179,1.205l-1.285-0.043C13.144,46.032,12.688,45.905,12.8,45.454 M27.589,29.087   c0.103-0.407,0.535-0.316,0.535-0.316s-0.103-0.375,0.279-0.547c0.424-0.188,0.635,0.278,0.635,0.278l0.178,1.205l-1.284-0.042   C27.933,29.665,27.478,29.538,27.589,29.087 M13.286,30.728c0-0.063,0.102-0.053,0.293-0.085c0.192-0.031,0.363-0.096,0.363-0.031   c0,0.097-0.133,0.021-0.133,0.177v1.5c0,0.075,0.101,0.021,0.101,0.08c0,0.074-0.181,0.043-0.314,0.043   c-0.14,0-0.315,0.031-0.315-0.027c0-0.101,0.123,0,0.123-0.096v-1.425C13.402,30.714,13.286,30.852,13.286,30.728 M11.657,31.379   c0-0.042,0.053-0.047,0.149-0.096c0.097-0.048,0.154-0.103,0.24-0.026c0.085,0.075,0.55,0.608,0.55,0.608v-0.759   c0-0.086-0.149,0.026-0.149-0.059c0-0.063,0.064-0.063,0.17-0.106c0.107-0.043,0.262-0.159,0.262-0.086   c0,0.092-0.111,0.063-0.111,0.183V32.5c0,0.123-0.012,0.123-0.064,0.123c-0.032,0-0.771-0.932-0.771-0.932v0.992   c0,0.091,0.179-0.034,0.179,0.051c0,0.049-0.107,0.074-0.214,0.117c-0.107,0.042-0.256,0.112-0.256,0.06   c0-0.091,0.133-0.06,0.133-0.149v-1.286C11.773,31.379,11.657,31.454,11.657,31.379 M11.079,32.294   c0-0.619-0.395-0.389-0.395-0.389v1.271C10.684,33.177,11.079,33.17,11.079,32.294 M10.155,32.038c0-0.045,0.192-0.116,0.32-0.177   c0.229-0.106,0.972-0.485,0.972,0.428c0,0.838-0.588,0.977-0.774,1.062c-0.187,0.086-0.439,0.209-0.459,0.168   c-0.032-0.064,0.102-0.076,0.102-0.226v-1.041C10.315,31.99,10.155,32.126,10.155,32.038 M12.741,28.256   c-0.004-0.039,0.151-0.065,0.23-0.087c0.134-0.036,0.219-0.063,0.274-0.006s0.33,0.499,0.33,0.499s0.354-0.499,0.381-0.532   c0.028-0.034,0.039-0.081,0.181-0.084c0.161-0.003,0.234-0.021,0.234,0.014c0,0.063-0.101,0.031-0.106,0.16   c-0.004,0.101,0,1.294,0,1.361c0,0.151,0.104,0.101,0.104,0.151s-0.067,0.029-0.305,0.027c-0.196-0.003-0.328,0.025-0.328-0.012   c0-0.067,0.104-0.012,0.104-0.148v-0.91c0,0-0.342,0.499-0.358,0.499c-0.021,0-0.438-0.637-0.438-0.637v1.09   c0,0.175,0.173,0.072,0.173,0.142c0,0.033-0.132,0.049-0.229,0.072c-0.112,0.027-0.21,0.069-0.222,0.038   c-0.024-0.066,0.121-0.029,0.121-0.227c0-0.174,0.002-1.174,0-1.247C12.879,28.227,12.747,28.311,12.741,28.256 M12.248,28.445   c0.059-0.026,0.211-0.109,0.229-0.085c0.026,0.037-0.062,0.046-0.122,0.31c-0.023,0.096-0.311,1.606-0.417,1.66   c-0.034,0.018-0.521-1.19-0.566-1.286c-0.08-0.171-0.165-0.057-0.181-0.117c-0.01-0.039,0.123-0.089,0.233-0.139   c0.06-0.027,0.274-0.157,0.298-0.131c0.045,0.051-0.118,0.053-0.04,0.236c0.052,0.124,0.324,0.727,0.324,0.727   s0.16-0.679,0.209-0.907c0.048-0.229-0.128-0.115-0.134-0.165c-0.003-0.029,0.085-0.066,0.16-0.099L12.248,28.445z M10.377,30.032   v0.829c0,0,0.428-0.089,0.428-0.605C10.806,29.812,10.377,30.032,10.377,30.032 M10.373,29.303v0.55c0,0,0.311-0.114,0.311-0.383   C10.683,29.15,10.373,29.303,10.373,29.303 M10.405,29.161c0.181-0.069,0.656-0.165,0.656,0.246c0,0.294-0.192,0.361-0.192,0.361   s0.347,0.064,0.347,0.354c0,0.331-0.159,0.561-0.341,0.656c-0.093,0.05-0.662,0.324-0.716,0.356   c-0.053,0.032-0.18,0.102-0.194,0.07c-0.032-0.072,0.094-0.061,0.094-0.273V29.6c0-0.282-0.134-0.157-0.134-0.23   C9.924,29.324,10.22,29.231,10.405,29.161 M13.368,25.414v0.672c0,0,0.316-0.021,0.316-0.384   C13.684,25.269,13.368,25.414,13.368,25.414 M14.203,26.914c0.096,0.012,0.139-0.026,0.139-0.026s-0.031,0.24-0.282,0.24   c-0.342,0-0.336-0.587-0.433-0.758c-0.096-0.171-0.257-0.08-0.257-0.08v0.598c0,0.192,0.12,0.109,0.12,0.18   c0,0.028-0.093,0.045-0.093,0.045s-0.261,0.074-0.357,0.097c-0.096,0.021-0.138,0.043-0.138,0c0-0.076,0.095-0.027,0.095-0.237   v-1.235c0-0.239-0.138-0.159-0.141-0.228c-0.002-0.04,0.096-0.059,0.191-0.083c0.161-0.04,0.223-0.09,0.451-0.144   c0.222-0.053,0.609,0.054,0.609,0.361c0,0.343-0.193,0.411-0.299,0.491C14.203,26.327,14.026,26.892,14.203,26.914 M11.609,26.036   c0.16-0.054,0.442-0.174,0.747-0.345c0.041-0.022,0.165-0.101,0.224,0.012c0.062,0.114,0.107,0.267,0.07,0.282   c-0.055,0.022-0.091-0.021-0.16-0.06c-0.061-0.032-0.139-0.068-0.214-0.048c-0.074,0.021-0.176,0.066-0.176,0.066l0.001,0.525   c0,0,0.186,0,0.208-0.101c0.017-0.081,0.05-0.188,0.108-0.203c0.034-0.009,0.024,0.099,0.028,0.25   c0.002,0.052,0.005,0.081,0.006,0.108c0.004,0.187-0.007,0.247-0.034,0.252c-0.051,0.011-0.094-0.125-0.105-0.156   c-0.022-0.057-0.211-0.005-0.211,0.024v0.757c0,0,0.144-0.076,0.208-0.114c0.087-0.052,0.233-0.221,0.291-0.32   c0.056-0.099,0.078-0.18,0.13-0.171c0.033,0.005-0.037,0.331-0.037,0.331s-0.005,0.128-0.112,0.181   c-0.105,0.055-0.703,0.333-0.755,0.358c-0.102,0.048-0.225,0.136-0.227,0.088c-0.003-0.075,0.099-0.035,0.099-0.256l-0.003-1.263   c0,0-0.004-0.105-0.085-0.12C11.546,26.105,11.489,26.077,11.609,26.036 M10.212,26.616c0.086-0.03,0.329-0.135,0.343-0.105   c0.033,0.076-0.126,0.06-0.073,0.211c0.045,0.128,0.326,0.796,0.326,0.796l0.246-0.961c0.053-0.208-0.115-0.136-0.13-0.187   c-0.009-0.035,0.123-0.075,0.198-0.107c0.062-0.028,0.259-0.113,0.271-0.088c0.025,0.067-0.075,0.067-0.128,0.254   c-0.064,0.222-0.438,1.727-0.542,1.782c-0.06,0.032-0.574-1.266-0.614-1.366s-0.179-0.063-0.192-0.123   C9.912,26.698,10.126,26.644,10.212,26.616 M16.976,30.781c-0.003-0.04,0.058-0.024,0.148,0.004c0.091,0.025,0.2,0.054,0.275,0.176   c0.074,0.122,0.637,1.084,0.637,1.084l-0.004-0.868c0-0.115-0.102-0.118-0.102-0.166c0-0.044,0.077,0,0.159,0.028   c0.081,0.026,0.2,0.04,0.2,0.078c0,0.036-0.104-0.019-0.104,0.084v1.637c0,0,0,0.071-0.048,0.006   c-0.038-0.052-0.882-1.409-0.882-1.409s0.003,0.852,0,0.939c-0.003,0.101,0.109,0.091,0.109,0.142c0,0.052-0.119,0.024-0.193,0.011   c-0.074-0.015-0.187-0.003-0.187-0.067s0.102,0.034,0.102-0.118v-1.393C17.086,30.842,16.979,30.835,16.976,30.781 M17.771,28.273   c0-0.062,0.268,0.047,0.478,0.107c0.21,0.062,0.606,0.126,0.606,0.254c0,0.158,0.041,0.31-0.01,0.31   c-0.031,0-0.096-0.199-0.159-0.266c-0.099-0.098-0.298-0.142-0.353-0.151c-0.055-0.011-0.041-0.008-0.041,0.03v0.509   c0,0,0.136,0.066,0.21,0.033c0.075-0.033,0.085-0.151,0.129-0.143c0.043,0.01,0.027,0.102,0.021,0.277   c-0.007,0.177,0.014,0.336-0.031,0.318c-0.043-0.017-0.047-0.166-0.138-0.255c-0.092-0.088-0.193-0.101-0.193-0.101v0.829   c0,0,0.102,0.111,0.312,0.044s0.358-0.21,0.393-0.177c0.034,0.034,0.018,0.081-0.084,0.24c-0.102,0.16-0.156,0.262-0.258,0.217   c-0.103-0.044-0.332-0.132-0.474-0.194c-0.143-0.065-0.438-0.138-0.438-0.197c0-0.061,0.146,0.051,0.146-0.125v-1.42   C17.887,28.344,17.771,28.322,17.771,28.273 M17.429,28.031c0.074,0,0.06,0.274,0.07,0.364c0.021,0.172,0.072,0.322,0.019,0.325   c-0.081,0.004-0.179-0.269-0.31-0.403c-0.123-0.127-0.575-0.357-0.575,0.599c0,0.817,0.355,0.801,0.55,0.74   c0.189-0.062,0.269-0.211,0.291-0.195c0.022,0.015-0.157,0.404-0.554,0.449c-0.396,0.044-0.783-0.345-0.783-0.953   c0-0.609,0.299-0.982,0.676-0.982c0.303,0,0.392,0.209,0.521,0.209C17.42,28.183,17.341,28.031,17.429,28.031 M18.45,25.861   c0.015-0.076,0.152,0.021,0.376,0.11c0.223,0.093,0.386,0.14,0.373,0.178c-0.014,0.036-0.173-0.023-0.153,0.081   c0.021,0.104,0.271,0.929,0.271,0.929s0.291-0.69,0.298-0.719c0.021-0.085-0.078-0.099-0.068-0.14   c0.012-0.043,0.1,0.015,0.17,0.055c0.071,0.04,0.187,0.077,0.166,0.126c-0.02,0.047-0.104-0.062-0.139,0.021   c-0.034,0.081-0.617,1.389-0.617,1.389l-0.583-1.88C18.511,25.901,18.439,25.912,18.45,25.861 M17.118,25.356   c0-0.045,0.082-0.008,0.082-0.008l0.518,0.188c0,0,0.092,0.03,0.089,0.071c-0.003,0.04-0.177-0.052-0.177,0.104v1.46   c0,0,0.037,0.098,0.21,0.027c0.174-0.071,0.431-0.241,0.431-0.241s0.122-0.062,0.092,0.023c-0.031,0.085-0.153,0.355-0.153,0.355   s-0.026,0.104-0.166,0.081c-0.139-0.024-0.48-0.129-0.576-0.156c-0.095-0.026-0.358-0.106-0.358-0.106s-0.054-0.012-0.054-0.053   c0-0.04,0.166,0.004,0.166-0.129V25.55C17.22,25.421,17.118,25.418,17.118,25.356 M19.125,30.515c0-0.101,0.14,0.038,0.14-0.122   v-1.409c0-0.177-0.08-0.17-0.08-0.239s0.154,0.031,0.191,0.049c0.037,0.015,0.443,0.224,0.486,0.245   c0.042,0.021,0.475,0.197,0.475,0.672c0,0.326-0.271,0.272-0.271,0.272s0.271,0.159,0.287,0.399   c0.017,0.24,0.049,0.443,0.049,0.476c0,0.031,0.048,0.172,0.197,0.043c0,0,0.017,0.286-0.31,0.182   c-0.213-0.069-0.272-0.268-0.288-0.4c-0.017-0.134-0.091-0.776-0.38-0.768v0.646c0,0.172,0.102,0.123,0.102,0.226   c0,0.063-0.149-0.038-0.282-0.093C19.243,30.603,19.125,30.575,19.125,30.515 M19.623,29.081v0.655   c0.043,0.017,0.368,0.225,0.368-0.182S19.623,29.081,19.623,29.081 M18.908,31.539c0.031-0.104-0.065-0.131-0.046-0.174   c0.014-0.032,0.146,0.04,0.227,0.076c0.08,0.037,0.203,0.069,0.235,0.18c0.032,0.107,0.451,1.538,0.491,1.671   c0.045,0.148,0.133,0.106,0.106,0.176c-0.011,0.027-0.134-0.032-0.377-0.128c-0.202-0.08-0.302-0.105-0.302-0.138   c0-0.066,0.204,0.043,0.156-0.097c-0.032-0.094-0.103-0.339-0.103-0.339l-0.563-0.183l-0.08,0.271   c-0.04,0.137,0.088,0.113,0.063,0.164c-0.013,0.028-0.093-0.008-0.196-0.051c-0.101-0.04-0.144-0.048-0.14-0.077   c0.006-0.048,0.085,0.021,0.122-0.076C18.542,32.718,18.878,31.626,18.908,31.539 M18.997,31.725l-0.197,0.632l0.438,0.146   L18.997,31.725z M30.276,14.05v18.732c0.208,11.188-8.946,15.159-14.985,15.159c-6.04,0-15.193-3.971-14.985-15.159V14.05h5.586   c-0.03-0.346,0.063-0.587,0.072-0.598c7.632-1.528,11.322-1.602,18.947,0.004c0.164,0.197,0.195,0.41,0.167,0.594H30.276z    M3.099,41.202l5.85-6.23v-1.819L8.286,33.13c0,0-0.456-0.127-0.343-0.578c0.102-0.407,0.535-0.315,0.535-0.315   s-0.103-0.375,0.279-0.546c0.069-0.031,0.134-0.046,0.191-0.047l0.001-1.207L1.64,38.22C2.015,39.327,2.511,40.317,3.099,41.202    M10.378,25.282c0.079-0.036,0.159-0.073,0.239-0.113c0.282-0.143,0.79-0.408,1.337-0.639c0.538-0.229,1.174-0.449,1.685-0.449   c0.513,0,0.925,0.153,1.208,0.306c0.142,0.076,0.253,0.153,0.329,0.212l0.028,0.023c0.01-0.016,0.022-0.031,0.036-0.048   c0.059-0.072,0.146-0.155,0.269-0.233c0.25-0.158,0.633-0.281,1.211-0.281c0.605,0,1.285,0.242,1.834,0.49l0.126,0.059l9.398-10.01   h-4.258l-8.278,8.815v-4.243l4.293-4.572H0.854v18.188c-0.013,0.68,0.011,1.331,0.066,1.957l4.096-4.362H8.95v-3.476   c-0.073,0.102-0.185,0.083-0.185,0.083s0.099-0.301-0.175-0.345c-0.021-0.003-0.043-0.005-0.067-0.005   c-0.155,0-0.242,0.078-0.335,0.152c-0.146,0.116-0.575,0.62-0.659,0.702c-0.084-0.082-0.515-0.586-0.661-0.702   c-0.092-0.074-0.18-0.152-0.334-0.152c-0.025,0-0.048,0.002-0.068,0.005c-0.273,0.044-0.174,0.345-0.174,0.345   s-0.248,0.04-0.248-0.337c0-0.267,0.212-0.424,0.4-0.474c0.284-0.063,0.564-0.085,0.618-0.555c0.003-0.095-0.014-0.113-0.014-0.113   s-0.102,0.155-0.354,0.275c-0.292,0.151-1.081,0.142-1.062,0.594c-0.006,0.181,0.192,0.164,0.192,0.164s-0.01,0.082-0.143,0.102   c-0.029,0.005-0.064,0.007-0.106,0.004c-0.183-0.025-0.244-0.22-0.23-0.464c0.011-0.151-0.092-0.354-0.289-0.325   c-0.034,0.007-0.072,0.019-0.112,0.039c-0.151,0.088-0.098,0.231-0.098,0.231s-0.172-0.096-0.146-0.295   c0.023-0.171,0.136-0.249,0.296-0.315c0.021-0.004,0.039-0.008,0.059-0.011c0.205-0.031,0.377,0.03,0.377,0.03   S5.38,25.384,5.4,25.227c0.017-0.134,0.087-0.268,0.287-0.305c0.298-0.056,0.361,0.145,0.316,0.254   c-0.016,0.011-0.068-0.068-0.153-0.056c-0.013,0.002-0.025,0.006-0.039,0.012c-0.05,0.026-0.079,0.06-0.095,0.095   c-0.05,0.118,0.049,0.269,0.065,0.292c0.06,0.08,0.244,0.137,0.473,0.093c0.267-0.058,0.455-0.229,0.547-0.385   c0.05-0.079,0.07-0.153,0.063-0.204l0.145-1.609c0,0,0.047-0.414-0.235-0.462c-0.033-0.008-0.066-0.008-0.101-0.002   c-0.237,0.037-0.485,0.354-0.407,0.752c0.06,0.305-0.097,0.538-0.246,0.571c-0.191,0.045-0.308,0.008-0.374-0.133   c0.333-0.021,0.312-0.289,0.207-0.385c-0.045-0.04-0.11-0.051-0.186-0.04c-0.311,0.049-0.803,0.478-0.882,0.733   c-0.071,0.229,0.102,0.171,0.174,0.364c0.06,0.155-0.072,0.279-0.072,0.279c-0.005,0.053-0.012,0.098-0.021,0.134   c-0.036,0.136-0.105,0.181-0.171,0.189c-0.051,0.008-0.099-0.006-0.124-0.015c0.083-0.035,0.108-0.112,0.115-0.176   c0.005-0.044,0.001-0.079,0.001-0.079s-0.093,0.011-0.174-0.114c-0.095-0.146,0.021-0.192-0.081-0.351   c-0.105-0.157-0.396-0.325-0.622-0.354c-0.016-0.002-0.029-0.001-0.043,0.001c-0.044,0.006-0.086,0.028-0.154,0.039   c-0.019,0.004-0.041,0.006-0.066,0.006c-0.179,0.004-0.13-0.105-0.276-0.093c-0.076,0.016-0.12,0.088-0.096,0.191   c0.005,0.017-0.008,0.025-0.008,0.025c-0.081-0.056-0.114-0.13-0.121-0.219c-0.001-0.231,0.147-0.396,0.287-0.408   c0.166-0.017,0.243,0.087,0.256,0.105c0.092-0.386-0.211-0.255-0.356-0.439c-0.099-0.128-0.06-0.192-0.046-0.238   c0.02-0.069-0.102-0.078-0.193-0.063c-0.026,0.005-0.05,0.011-0.067,0.017c-0.018-0.018,0.029-0.197,0.22-0.226   c0.064-0.012,0.147-0.003,0.253,0.036c0.098-0.028,0.191,0.02,0.227,0.086c0.042,0.08,0.007,0.172,0.019,0.271   c0.029,0.256,0.187,0.249,0.211,0.246c-0.14-0.366,0.036-0.476,0.054-0.532c0.018-0.058-0.004-0.135-0.095-0.167   c-0.02-0.007-0.045-0.022-0.016-0.03c0,0,0.352-0.016,0.405,0.214c0,0,0.151,0.08,0.155,0.271c0.004,0.236-0.124,0.258-0.173,0.305   c0.036,0.247,0.182,0.288,0.318,0.269c0.135-0.021,0.259-0.102,0.259-0.102c0.23-0.092,0.71-0.388,0.581-0.63   c-0.06-0.11-0.156-0.157-0.264-0.142c-0.051,0.008-0.103,0.029-0.154,0.065c-0.139,0.133-0.069,0.308-0.069,0.308   c-0.211,0.056-0.311-0.312-0.178-0.467c0.092-0.108,0.204-0.151,0.325-0.174c0.139-0.023,0.287-0.019,0.43-0.048   c0.169-0.033,0.298-0.139,0.423-0.356c0.092-0.153,0.095-0.364,0.015-0.532c-0.082-0.185-0.251-0.414-0.488-0.457   c-0.045,0.396-0.264,0.71-0.531,0.9c-0.066,0.047-0.153,0.071-0.211,0.081c-0.047,0.008-0.077,0.004-0.066-0.011   c0.349-0.407,0.259-0.836,0.249-0.877c-0.025,0.047-0.298,0.548-0.785,0.763c-0.047,0.021-0.096,0.032-0.146,0.041   c-0.263,0.041-0.524-0.081-0.42-0.095c0.173-0.022,0.871-0.429,0.66-1.289c-0.026,0.05-0.334,0.598-0.712,0.856   c-0.16,0.11-0.329,0.166-0.478,0.188c-0.298,0.048-0.524-0.035-0.482-0.074c0,0,0.822-0.39,0.832-0.761   c-0.026,0.021-0.249,0.193-0.508,0.233c-0.035,0.005-0.071,0.008-0.105,0.008c-0.701,0-0.701-0.504-0.701-0.504   c0.049,0.005,0.704,0.048,1.238-1.088c0,0-0.349,0.123-0.751,0.167c-0.237,0.026-0.338-0.123-0.31-0.121   c0.042,0.014,0.089,0.019,0.149,0.009c0.132-0.021,0.319-0.104,0.559-0.287C2.8,19.571,1.942,19.19,2.274,18.6   c0,0,0.237,0.207,0.529,0.233c0.215,0.019,0.589-0.021,0.68-0.237c0,0-0.463-0.026-0.917-0.313   c-0.269-0.167-0.373-0.564-0.275-0.449c0.101,0.118,0.203,0.152,0.357,0.191c0.12,0.03,0.202,0.002,0.202,0.002   s-0.667-0.632-0.245-1.121c0,0,0.225,0.629,0.777,0.631c0,0-0.279-0.261-0.336-0.572c-0.039-0.214-0.022-0.498,0.017-0.417   c0.026,0.057,0.087,0.157,0.126,0.229c0.068,0.124,0.216,0.29,0.334,0.393c0,0-0.084-0.329,0.031-0.628   c0.017-0.046,0.171-0.297,0.182-0.234c0,0,0.002,0.197,0.013,0.261c0.034,0.213,0.115,0.479,0.516,0.886   c0.507,0.517,1.057,0.513,1.061,0.836c-0.02,0.385-0.494,0.335-0.805,0.308c-0.108,0-0.095,0.165-0.004,0.283   c0.259,0.347,1.356,0.431,1.7-0.132c0.122-0.197,0.155-0.434,0.073-0.652c-0.104-0.292-0.34-0.301-0.788-0.397   c-0.317-0.068-0.231-0.211-0.185-0.211c0,0,0.097,0.055,0.19,0.055c0.235,0.002,0.093-0.301,0.067-0.297   c-0.06,0.009-0.313,0.11-0.533,0.13c-0.277,0.023-0.61-0.087-0.61-0.28c0-0.23,0.291-0.297,0.277-0.235   c-0.003,0.016-0.175,0.329,0.338,0.313c0.162-0.005,0.489-0.023,0.488-0.038c-0.01-0.086-0.162-0.209-0.278-0.209   c-0.086,0-0.165,0.022-0.321,0.006c-0.057-0.138,0.094-0.276,0.196-0.329c0.104-0.052,0.178-0.026,0.223-0.044   c0.06-0.021,0.096-0.21,0.438-0.215c0.181-0.003,0.441,0.122,0.563,0.122c0.12,0,0.334-0.078,0.355-0.04   c0.021,0.04-0.086,0.163-0.064,0.271c-0.01,0.251,0.424,1.242,0.882,1.337c0.457-0.095,0.893-1.086,0.882-1.337   c0.021-0.108-0.086-0.231-0.064-0.271c0.021-0.038,0.236,0.04,0.356,0.04s0.381-0.125,0.563-0.122   c0.343,0.005,0.379,0.194,0.438,0.215c0.045,0.018,0.118-0.008,0.221,0.044c0.104,0.053,0.253,0.191,0.197,0.329   c-0.156,0.018-0.236-0.006-0.322-0.006c-0.115,0-0.268,0.123-0.276,0.209c-0.002,0.015,0.325,0.033,0.487,0.038   c0.514,0.018,0.342-0.297,0.338-0.313c-0.014-0.062,0.278,0.005,0.278,0.235c0,0.193-0.334,0.305-0.611,0.28   c-0.219-0.02-0.473-0.121-0.532-0.13c-0.025-0.004-0.169,0.299,0.066,0.297c0.095,0,0.191-0.055,0.191-0.055   c0.047,0,0.133,0.143-0.185,0.211c-0.449,0.1-0.686,0.108-0.789,0.4c-0.081,0.22-0.049,0.455,0.072,0.652   c0.345,0.563,1.443,0.479,1.702,0.132c0.089-0.118,0.104-0.283-0.005-0.283c-0.31,0.027-0.784,0.077-0.805-0.308   c0.005-0.323,0.555-0.319,1.062-0.836c0.399-0.407,0.481-0.673,0.516-0.885c0.01-0.063,0.013-0.262,0.013-0.262   c0.01-0.063,0.165,0.188,0.182,0.234c0.114,0.299,0.03,0.628,0.03,0.628c0.118-0.102,0.266-0.268,0.334-0.392   c0.04-0.073,0.1-0.175,0.126-0.23c0.039-0.081,0.055,0.203,0.017,0.417c-0.056,0.313-0.336,0.572-0.336,0.572   c0.554-0.002,0.777-0.631,0.777-0.631c0.422,0.489-0.245,1.122-0.245,1.122s0.082,0.027,0.203-0.002   c0.154-0.039,0.256-0.074,0.356-0.192c0.099-0.115-0.007,0.282-0.274,0.449c-0.454,0.286-0.917,0.313-0.917,0.313   c0.09,0.216,0.465,0.256,0.679,0.237c0.292-0.026,0.53-0.233,0.53-0.233c0.331,0.59-0.528,0.972-0.591,0.999   c0.238,0.185,0.427,0.268,0.558,0.287c0.061,0.01,0.108,0.005,0.15-0.009c0.028-0.002-0.072,0.147-0.312,0.121   c-0.4-0.044-0.75-0.167-0.75-0.167c0.535,1.136,1.189,1.093,1.239,1.088c0,0,0,0.504-0.701,0.504c-0.036,0-0.07-0.003-0.105-0.008   c-0.259-0.04-0.482-0.212-0.509-0.233c0.011,0.371,0.832,0.762,0.832,0.762c0.043,0.038-0.185,0.121-0.481,0.073   c-0.15-0.021-0.317-0.077-0.479-0.188c-0.379-0.259-0.686-0.808-0.713-0.856c-0.21,0.86,0.488,1.267,0.661,1.289   c0.104,0.014-0.158,0.136-0.42,0.095c-0.049-0.009-0.098-0.021-0.145-0.041c-0.488-0.215-0.761-0.716-0.785-0.763   c-0.01,0.041-0.102,0.47,0.248,0.877c0.012,0.016-0.019,0.019-0.065,0.011c-0.059-0.01-0.145-0.034-0.211-0.08   c-0.268-0.191-0.487-0.505-0.533-0.901c-0.236,0.043-0.404,0.272-0.486,0.457c-0.08,0.168-0.077,0.379,0.014,0.532   c0.126,0.219,0.255,0.323,0.424,0.356c0.142,0.029,0.29,0.023,0.428,0.048c0.122,0.021,0.235,0.064,0.327,0.175   c0.132,0.154,0.032,0.521-0.179,0.466c0,0,0.07-0.174-0.069-0.308c-0.051-0.036-0.104-0.059-0.154-0.065   c-0.106-0.017-0.204,0.031-0.264,0.142c-0.129,0.242,0.352,0.538,0.581,0.63c0,0,0.124,0.079,0.259,0.102   c0.137,0.021,0.283-0.021,0.318-0.269c-0.049-0.047-0.177-0.067-0.173-0.305c0.004-0.189,0.156-0.271,0.156-0.271   c0.054-0.229,0.403-0.214,0.403-0.214c0.031,0.009,0.005,0.023-0.015,0.03c-0.09,0.032-0.112,0.109-0.094,0.167   c0.017,0.058,0.192,0.166,0.054,0.532c0.023,0.003,0.181,0.01,0.21-0.246c0.011-0.099-0.022-0.19,0.02-0.271   c0.034-0.066,0.128-0.114,0.227-0.086c0.104-0.039,0.188-0.048,0.253-0.036c0.19,0.027,0.236,0.208,0.236,0.208   s0.003,0.021-0.019,0.018c-0.017-0.006-0.04-0.012-0.065-0.016c-0.092-0.016-0.213-0.007-0.193,0.063   c0.013,0.046,0.052,0.11-0.047,0.238c-0.145,0.186-0.447,0.055-0.356,0.439c0.013-0.02,0.09-0.122,0.257-0.105   c0.14,0.013,0.286,0.177,0.285,0.409c-0.005,0.088-0.038,0.162-0.119,0.218c0,0-0.014-0.01-0.01-0.025   c0.025-0.104-0.018-0.177-0.095-0.191c-0.146-0.014-0.098,0.097-0.277,0.093c-0.023,0-0.046-0.002-0.065-0.006   c-0.068-0.011-0.11-0.033-0.154-0.039c-0.014-0.002-0.028-0.003-0.042-0.001c-0.227,0.028-0.517,0.196-0.622,0.354   c-0.104,0.157,0.014,0.203-0.082,0.351c-0.081,0.125-0.174,0.114-0.174,0.114s-0.004,0.035,0.001,0.079   C10.371,25.247,10.374,25.263,10.378,25.282 M9.779,25.508c0.142-0.042,0.298-0.098,0.459-0.165   c-0.019-0.027-0.036-0.064-0.049-0.113c-0.01-0.036-0.018-0.081-0.021-0.134c0,0-0.132-0.124-0.072-0.279   c0.072-0.193,0.244-0.136,0.174-0.364c-0.08-0.257-0.572-0.686-0.883-0.733c-0.075-0.011-0.14,0-0.185,0.04   c-0.104,0.096-0.126,0.363,0.207,0.385c-0.068,0.141-0.183,0.179-0.374,0.133c-0.151-0.033-0.307-0.268-0.247-0.571   c0.079-0.397-0.169-0.714-0.408-0.752c-0.032-0.005-0.066-0.005-0.099,0.002c-0.282,0.046-0.236,0.46-0.236,0.46l0.146,1.609   c-0.008,0.051,0.014,0.125,0.062,0.204c0.094,0.154,0.281,0.327,0.548,0.386C9.03,25.657,9.212,25.6,9.274,25.52   c0.016-0.023,0.115-0.174,0.064-0.292c-0.016-0.035-0.045-0.067-0.094-0.095c-0.014-0.006-0.027-0.01-0.04-0.012   c-0.084-0.014-0.138,0.065-0.154,0.056c-0.044-0.109,0.021-0.31,0.317-0.254c0.201,0.037,0.271,0.171,0.287,0.305   c0.02,0.155-0.033,0.313-0.033,0.313S9.686,25.518,9.779,25.508 M8.95,26.082c-0.003-0.023-0.006-0.071,0.002-0.128   c-0.218-0.063-0.457-0.098-0.591-0.167c-0.251-0.12-0.354-0.275-0.354-0.275s-0.015,0.021-0.012,0.113   c0.053,0.47,0.334,0.49,0.617,0.555c0.125,0.033,0.261,0.114,0.338,0.243V26.082z M19.092,35.139   c-0.044,0.092-0.042,0.266,0.022,0.351c0.235,0.313,1.16,0.41,1.587,0.008C20.149,35.411,19.627,35.267,19.092,35.139    M21.667,34.273c0.139,0.187,0.297,0.332,0.459,0.364c0.458-0.093,0.894-1.086,0.882-1.337c0.021-0.106-0.085-0.23-0.063-0.271   c0.021-0.037,0.236,0.04,0.355,0.04c0.12,0,0.383-0.125,0.563-0.121c0.343,0.005,0.379,0.192,0.438,0.215   c0.046,0.016,0.119-0.009,0.222,0.044c0.104,0.051,0.254,0.19,0.198,0.329c-0.157,0.016-0.236-0.007-0.322-0.007   c-0.116,0-0.269,0.123-0.278,0.21c-0.001,0.014,0.326,0.032,0.488,0.037c0.513,0.018,0.341-0.297,0.337-0.313   c-0.012-0.061,0.279,0.004,0.279,0.236c0,0.192-0.334,0.304-0.611,0.279c-0.219-0.02-0.473-0.121-0.533-0.131   c-0.024-0.004-0.168,0.3,0.067,0.298c0.094,0,0.19-0.056,0.19-0.056c0.048,0,0.134,0.144-0.185,0.211   c-0.448,0.099-0.684,0.107-0.789,0.399c-0.081,0.219-0.048,0.455,0.073,0.651c0.344,0.563,1.442,0.479,1.702,0.133   c0.089-0.118,0.104-0.283-0.006-0.283c-0.31,0.026-0.783,0.076-0.805-0.31c0.005-0.322,0.555-0.317,1.063-0.836   c0.399-0.406,0.48-0.673,0.515-0.885c0.01-0.063,0.013-0.26,0.013-0.26c0.011-0.063,0.165,0.188,0.183,0.233   c0.113,0.299,0.029,0.628,0.029,0.628c0.118-0.102,0.267-0.269,0.335-0.393c0.039-0.073,0.1-0.174,0.125-0.229   c0.039-0.082,0.057,0.202,0.018,0.416c-0.056,0.313-0.336,0.572-0.336,0.572c0.553-0.003,0.777-0.632,0.777-0.632   c0.422,0.49-0.245,1.122-0.245,1.122s0.083,0.029,0.202-0.001c0.154-0.04,0.258-0.075,0.357-0.192   c0.098-0.115-0.007,0.281-0.275,0.448c-0.453,0.286-0.917,0.313-0.917,0.313c0.091,0.215,0.466,0.256,0.68,0.236   c0.292-0.025,0.529-0.232,0.529-0.232c0.332,0.589-0.527,0.97-0.591,0.999c0.238,0.183,0.427,0.266,0.56,0.286   c0.059,0.01,0.106,0.006,0.148-0.009c0.028-0.002-0.072,0.147-0.311,0.121c-0.401-0.044-0.75-0.167-0.75-0.167   c0.535,1.136,1.188,1.093,1.238,1.088c0,0,0,0.504-0.7,0.504c-0.036,0-0.071-0.003-0.106-0.008   c-0.259-0.04-0.481-0.213-0.509-0.232c0.011,0.37,0.832,0.76,0.832,0.76c0.043,0.039-0.185,0.122-0.481,0.075   c-0.149-0.023-0.316-0.078-0.478-0.189c-0.378-0.259-0.686-0.807-0.712-0.854c-0.21,0.859,0.486,1.265,0.661,1.289   c0.104,0.013-0.158,0.135-0.42,0.094c-0.051-0.007-0.1-0.021-0.146-0.041c-0.488-0.214-0.76-0.715-0.785-0.763   c-0.01,0.041-0.1,0.47,0.249,0.879c0.011,0.013-0.019,0.016-0.065,0.009c-0.059-0.009-0.146-0.035-0.211-0.081   c-0.269-0.19-0.487-0.504-0.533-0.9c-0.237,0.043-0.405,0.272-0.487,0.456c-0.08,0.169-0.077,0.38,0.015,0.532   c0.125,0.22,0.255,0.324,0.424,0.359c0.141,0.027,0.29,0.021,0.428,0.047c0.122,0.021,0.234,0.063,0.327,0.173   c0.132,0.156,0.032,0.521-0.18,0.466c0,0,0.07-0.174-0.068-0.306c-0.051-0.037-0.104-0.06-0.154-0.067   c-0.107-0.016-0.204,0.031-0.264,0.144c-0.129,0.241,0.351,0.537,0.581,0.63c0,0,0.125,0.079,0.259,0.1   c0.137,0.021,0.283-0.02,0.319-0.267c-0.051-0.048-0.179-0.069-0.174-0.306c0.003-0.188,0.155-0.271,0.155-0.271   c0.054-0.229,0.405-0.214,0.405-0.214c0.03,0.008,0.004,0.023-0.017,0.03c-0.09,0.031-0.111,0.108-0.094,0.167   c0.019,0.058,0.193,0.166,0.054,0.531c0.024,0.004,0.182,0.011,0.211-0.245c0.012-0.1-0.023-0.19,0.019-0.271   c0.035-0.067,0.128-0.115,0.227-0.086c0.105-0.039,0.188-0.047,0.253-0.036c0.19,0.028,0.237,0.208,0.237,0.208   s0.002,0.022-0.018,0.019c-0.018-0.008-0.041-0.014-0.067-0.018c-0.092-0.014-0.213-0.006-0.192,0.063   c0.013,0.047,0.052,0.109-0.048,0.237c-0.145,0.188-0.446,0.056-0.355,0.441c0.013-0.021,0.089-0.123,0.256-0.107   c0.14,0.014,0.288,0.178,0.286,0.41c-0.005,0.087-0.039,0.162-0.12,0.217c0,0-0.012-0.01-0.009-0.022   c0.025-0.106-0.019-0.179-0.096-0.194c-0.146-0.012-0.097,0.098-0.276,0.093c-0.024,0-0.046-0.002-0.066-0.005   c-0.066-0.011-0.108-0.033-0.153-0.04c-0.014-0.002-0.027-0.003-0.042-0.001c-0.228,0.029-0.518,0.197-0.622,0.355   c-0.104,0.157,0.013,0.202-0.082,0.349c-0.08,0.125-0.175,0.116-0.175,0.116s-0.004,0.035,0.001,0.079   c0.009,0.062,0.033,0.14,0.113,0.156c0,0,0.025,0.013,0.003,0.019c-0.024,0.008-0.072,0.021-0.125,0.014   c-0.063-0.01-0.135-0.054-0.17-0.188c-0.01-0.037-0.017-0.082-0.02-0.135c0,0-0.132-0.124-0.073-0.279   c0.073-0.194,0.245-0.136,0.174-0.365c-0.079-0.256-0.572-0.684-0.883-0.732c-0.075-0.012-0.139,0-0.184,0.041   c-0.105,0.096-0.127,0.361,0.206,0.385c-0.066,0.139-0.183,0.177-0.373,0.133c-0.15-0.035-0.308-0.269-0.247-0.572   c0.078-0.396-0.169-0.715-0.407-0.753c-0.034-0.005-0.068-0.005-0.101,0.002c-0.281,0.048-0.235,0.462-0.235,0.462l0.145,1.61   c-0.008,0.05,0.015,0.125,0.063,0.205c0.093,0.153,0.281,0.327,0.548,0.384c0.229,0.043,0.413-0.012,0.473-0.092   c0.017-0.025,0.115-0.174,0.065-0.292c-0.017-0.036-0.045-0.069-0.094-0.096c-0.015-0.006-0.027-0.011-0.039-0.013   c-0.085-0.012-0.139,0.066-0.155,0.057c-0.044-0.109,0.02-0.311,0.318-0.253c0.199,0.037,0.27,0.17,0.286,0.305   c0.02,0.154-0.033,0.311-0.033,0.311s0.173-0.061,0.378-0.029c0.019,0.004,0.038,0.008,0.058,0.013   c0.16,0.064,0.273,0.143,0.296,0.313c0.026,0.198-0.145,0.295-0.145,0.295s0.053-0.144-0.099-0.23   c-0.041-0.021-0.078-0.034-0.112-0.039c-0.198-0.03-0.3,0.172-0.288,0.325c0.013,0.244-0.048,0.437-0.231,0.463   c-0.042,0.003-0.077,0.001-0.105-0.003c-0.134-0.021-0.144-0.103-0.144-0.103s0.198,0.019,0.192-0.164   c0.02-0.451-0.771-0.441-1.063-0.595c-0.251-0.12-0.353-0.274-0.353-0.274s-0.017,0.02-0.014,0.112   c0.054,0.471,0.335,0.49,0.617,0.557c0.188,0.05,0.401,0.206,0.401,0.473c0,0.377-0.248,0.336-0.248,0.336s0.099-0.3-0.174-0.343   c-0.021-0.003-0.043-0.005-0.068-0.005c-0.154,0-0.242,0.077-0.335,0.15c-0.145,0.116-0.575,0.62-0.659,0.702   c-0.084-0.082-0.515-0.586-0.66-0.702c-0.093-0.073-0.181-0.15-0.335-0.15c-0.024,0-0.047,0.002-0.067,0.005   c-0.273,0.043-0.174,0.343-0.174,0.343s-0.248,0.041-0.248-0.336c0-0.267,0.213-0.423,0.4-0.473   c0.283-0.065,0.564-0.086,0.617-0.557c0.003-0.094-0.013-0.112-0.013-0.112s-0.103,0.154-0.354,0.274   c-0.292,0.152-1.082,0.144-1.062,0.595c-0.006,0.183,0.191,0.164,0.191,0.164s-0.01,0.081-0.143,0.103   c-0.029,0.004-0.064,0.006-0.106,0.003c-0.183-0.026-0.243-0.219-0.23-0.463c0.011-0.153-0.09-0.355-0.288-0.325   c-0.035,0.005-0.072,0.019-0.113,0.039c-0.15,0.088-0.098,0.23-0.098,0.23s-0.171-0.097-0.146-0.295   c0.023-0.172,0.137-0.249,0.297-0.313c0.02-0.005,0.039-0.009,0.058-0.013c0.206-0.03,0.378,0.029,0.378,0.029   S19.98,41.987,20,41.833c0.018-0.134,0.087-0.268,0.288-0.305c0.297-0.058,0.361,0.144,0.317,0.254   c-0.018,0.01-0.07-0.068-0.155-0.058c-0.012,0.002-0.025,0.007-0.039,0.013c-0.049,0.025-0.078,0.06-0.094,0.096   c-0.05,0.118,0.049,0.267,0.064,0.292c0.061,0.08,0.244,0.135,0.474,0.092c0.266-0.057,0.455-0.229,0.548-0.384   c0.048-0.08,0.07-0.155,0.062-0.205l0.146-1.61c0,0,0.046-0.414-0.236-0.462c-0.032-0.007-0.065-0.007-0.099-0.002   c-0.239,0.038-0.487,0.355-0.408,0.753c0.06,0.305-0.096,0.537-0.247,0.572c-0.19,0.044-0.307,0.006-0.374-0.133   c0.333-0.022,0.313-0.289,0.207-0.385c-0.045-0.041-0.108-0.053-0.184-0.041c-0.312,0.05-0.805,0.478-0.883,0.732   c-0.071,0.23,0.101,0.171,0.174,0.365c0.059,0.156-0.073,0.28-0.073,0.28c-0.003,0.052-0.01,0.097-0.021,0.134   c-0.034,0.135-0.105,0.179-0.17,0.188c-0.052,0.009-0.1-0.006-0.125-0.014c0.083-0.035,0.108-0.113,0.116-0.175   c0.005-0.044,0.001-0.079,0.001-0.079s-0.094,0.009-0.174-0.116c-0.095-0.146,0.022-0.19-0.082-0.349s-0.395-0.326-0.622-0.355   c-0.015-0.002-0.029-0.001-0.042,0.001c-0.045,0.007-0.087,0.029-0.154,0.04c-0.02,0.003-0.042,0.005-0.065,0.005   c-0.18,0.005-0.131-0.104-0.277-0.093c-0.077,0.017-0.121,0.088-0.095,0.194c0.003,0.014-0.009,0.022-0.009,0.022   c-0.081-0.055-0.115-0.13-0.12-0.217c-0.002-0.232,0.146-0.396,0.286-0.41c0.167-0.016,0.244,0.088,0.256,0.107   c0.091-0.387-0.211-0.255-0.356-0.441c-0.099-0.128-0.06-0.19-0.047-0.237c0.021-0.069-0.101-0.077-0.192-0.063   c-0.026,0.004-0.051,0.01-0.066,0.018c-0.02-0.019,0.028-0.197,0.218-0.227c0.066-0.011,0.149-0.003,0.253,0.036   c0.1-0.029,0.192,0.019,0.228,0.086c0.042,0.08,0.007,0.172,0.019,0.271c0.029,0.256,0.187,0.249,0.21,0.245   c-0.139-0.365,0.036-0.475,0.054-0.531c0.019-0.059-0.004-0.136-0.094-0.167c-0.02-0.007-0.046-0.022-0.016-0.03   c0,0,0.351-0.016,0.405,0.214c0,0,0.151,0.081,0.154,0.271c0.005,0.235-0.123,0.259-0.173,0.306   c0.036,0.247,0.182,0.288,0.319,0.267c0.134-0.021,0.259-0.1,0.259-0.1c0.23-0.092,0.71-0.389,0.581-0.63   c-0.061-0.111-0.157-0.158-0.264-0.144c-0.051,0.009-0.104,0.03-0.154,0.067c-0.139,0.132-0.069,0.306-0.069,0.306   c-0.212,0.057-0.311-0.31-0.179-0.466c0.092-0.108,0.205-0.151,0.327-0.173c0.138-0.024,0.287-0.02,0.428-0.047   c0.169-0.035,0.298-0.141,0.423-0.359c0.092-0.152,0.095-0.363,0.016-0.532c-0.082-0.184-0.25-0.413-0.487-0.456   c-0.046,0.396-0.265,0.71-0.533,0.9c-0.065,0.046-0.153,0.072-0.211,0.081c-0.047,0.007-0.077,0.004-0.066-0.009   c0.351-0.409,0.26-0.837,0.249-0.878c-0.024,0.047-0.297,0.548-0.784,0.762c-0.048,0.021-0.097,0.034-0.146,0.041   c-0.261,0.041-0.522-0.081-0.42-0.094c0.174-0.024,0.871-0.43,0.661-1.289c-0.027,0.049-0.333,0.597-0.712,0.854   c-0.161,0.111-0.328,0.166-0.479,0.189c-0.297,0.047-0.523-0.036-0.48-0.075c0,0,0.82-0.389,0.832-0.76   c-0.027,0.021-0.25,0.192-0.509,0.232c-0.035,0.005-0.07,0.008-0.106,0.008c-0.701,0-0.701-0.504-0.701-0.504   c0.05,0.005,0.704,0.049,1.239-1.088c0,0-0.35,0.123-0.75,0.167c-0.239,0.026-0.339-0.123-0.312-0.121   c0.042,0.015,0.091,0.019,0.149,0.01c0.132-0.021,0.321-0.104,0.559-0.287c-0.063-0.029-0.923-0.41-0.591-0.999   c0,0,0.238,0.207,0.53,0.232c0.214,0.02,0.589-0.021,0.679-0.236c0,0-0.463-0.027-0.917-0.313   c-0.014-0.009-0.027-0.018-0.041-0.027c-0.207-0.001-0.421,0.011-0.643,0.032c-0.147,0.575-0.624,0.997-1.189,0.997   c-0.563,0-1.038-0.418-1.187-0.988c-0.367-0.064-0.72-0.073-1.065-0.046l-8.05,8.572c0.777,0.729,1.627,1.344,2.514,1.857   l7.527-8.016v4.242l-4.727,5.034c1.719,0.581,3.451,0.844,4.986,0.844c5.87,0,14.638-3.846,14.438-14.605v-6.923l-3.762,4.007   h-3.984l7.746-8.25v-4.535l-8.121,8.648c0.037,0.03,0.059,0.065,0.059,0.104L21.667,34.273z M20.792,36.869h2.672v-1.074h-2.673   L20.792,36.869z M22.127,38.965c1.201,0,1.307-1.135,1.307-1.135h-2.621C20.813,37.83,20.925,38.965,22.127,38.965 M6.192,20.265   h2.672v-1.073H6.191L6.192,20.265z M7.528,22.361c1.201,0,1.306-1.136,1.306-1.136H6.212C6.212,21.226,6.327,22.361,7.528,22.361    M14.736,34.715c0,0.317,0.258,0.575,0.575,0.575s0.575-0.258,0.575-0.575c0-0.316-0.258-0.575-0.575-0.575   C14.995,34.139,14.736,34.397,14.736,34.715 M9.315,26.056v8.813c0,0,0.096,0.117,0.685-0.043c0.679-0.187,1.52-1.05,2.697-1.308   c0.884-0.19,2.076,0.087,2.354,0.279v-8.829c0,0-0.533-0.522-1.411-0.522c-0.857,0-2.303,0.77-2.858,1.049   c-0.484,0.24-0.993,0.424-1.364,0.46C9.306,25.966,9.315,26.056,9.315,26.056 M17.042,33.5c1.531,0,2.328,0.949,2.848,1.156   c1.209,0.479,1.411,0.233,1.411,0.233v-8.858c0-0.087-0.128-0.087-0.128-0.087s-1.179-0.182-1.584-0.429   c-0.385-0.233-1.818-1.092-2.867-1.092c-1.053,0-1.241,0.45-1.241,0.45v8.945C15.479,33.82,15.972,33.5,17.042,33.5"/>
</g>
</svg>