<svg xmlns="http://www.w3.org/2000/svg" viewBox="0 0 220 220"><linearGradient id="prefix__a" gradientTransform="matrix(1 0 0 -1 0 220)" gradientUnits="userSpaceOnUse" x1="28.07" x2="186.26" y1="6.01" y2="164.21"><stop offset="0" stop-color="#25316a"/><stop offset=".08" stop-color="#293268"/><stop offset=".16" stop-color="#353564"/><stop offset=".24" stop-color="#493b5d"/><stop offset=".32" stop-color="#654352"/><stop offset=".4" stop-color="#8a4d45"/><stop offset=".48" stop-color="#b75a35"/><stop offset=".55" stop-color="#eb6923"/><stop offset=".56" stop-color="#f26b21"/><stop offset="1" stop-color="#9c9c9c"/></linearGradient><path d="M163 91.81V32.53L107.16.3 51.33 32.53v59.29L0 121.45v64.47l55.83 32.23 51.33-29.63 51.33 29.63 55.83-32.23v-64.47l-51.33-29.63zm-60.33 83.59l-42.33-24.44V102.2l42.33 24.44zM64.73 94.34l42.44-24.51 42.44 24.51-42.44 24.51zm46.95 32.29l42.33-24.44v48.76l-42.33 24.44zM60.34 37.71l46.84-27.04 46.84 27.04v48.77l-46.84-27.04-46.84 27.04zm-4.5 170.04L9 180.71v-54.08l42.33-24.44v53.96l46.94 27.1-42.44 24.51zm149.5-27.03l-46.84 27.04-42.45-24.51 46.94-27.1v-53.96l42.33 24.44v54.08z" fill="url(#prefix__a)"/></svg>