<svg xmlns="http://www.w3.org/2000/svg" xml:space="preserve" width="128" height="128"><path d="M423.57 27.37c-8 0-14.61 2.85-19.21 8.24h-.24v-7.34h-14.01v28.97c0 13.09-7.44 19.87-15.55 19.87-8.36 0-12-3.64-12-15.77V28.27h-13.88v36.84c0 17.99 9.28 24.67 22.61 24.67 7.08 0 13.8-3.04 18.65-8.86h.17v7.87h.13V113h13.88V81.34h.17c4.43 5.39 10.91 8.43 19.15 8.43 16.77 0 29.33-12.24 29.33-30.96 0-18.31-12.56-31.44-29.2-31.44m-2.31 49.8c-8.54 0-15.53-5.48-17.26-14.06-.28-1.35-.43-2.76-.43-4.26 0-1.52.15-2.99.43-4.39 1.69-8.49 8.26-14.5 17.2-14.5 9.69 0 17.46 7.27 17.46 18.89-.01 10.75-7.16 18.32-17.4 18.32" style="fill:#ff9515" transform="matrix(1.1721 0 0 1.1721 -405.692 -18.264)"/></svg>
