<svg xmlns="http://www.w3.org/2000/svg" xml:space="preserve" id="svg13" width="420mm" height="420mm" viewBox="0 0 420 420"><path id="path8" d="M202.328 241.684c-3.464-.508-5.959-2.356-7.04-5.215-.97-2.563-1.046-3.607-1.148-15.527-.102-11.845.033-15.078.74-17.835.72-2.802 2.02-4.562 4.155-5.622 2.132-1.059 2.804-1.115 13.273-1.116l9.667-.001 1.028.476c2.808 1.303 4.829 5.345 5.325 10.651.363 3.892-.203 7.618-1.62 10.662-.904 1.942-2.068 3.271-3.48 3.972l-1.03.511h-13.817v-4.613l4.078-.001c3.872-.001 4.116-.024 4.819-.452 1.325-.806 2.074-2.128 2.642-4.668.96-4.296.312-9.593-1.38-11.28l-.677-.673-5.496.062c-5.263.06-5.536.082-6.437.523-2.913 1.43-3.302 3.948-3.123 20.2.131 11.898.275 12.801 2.266 14.194 1.541 1.08 2.209 1.145 11.616 1.148l8.61.002v4.814l-10.927-.025c-6.009-.013-11.429-.098-12.044-.188zm34.85-16.91c0-18.573.03-19.158 1.112-21.841.944-2.34 2.814-4.391 5.027-5.512 2.754-1.396 5.463-1.856 10.93-1.858h3.876v4.55l-3.574.127c-3.938.14-5.335.412-6.573 1.283-.895.63-1.423 1.52-1.763 2.974-.163.698-.258 6.413-.316 19.197l-.084 18.203h-8.635zm29.21-5.64v-22.766h8.66V241.9h-8.66zm65.25 20.36v-2.415h9.678c10.673 0 10.357.036 11.359-1.272 1.084-1.416 1.396-2.757 1.408-6.05.01-2.621-.047-3.176-.443-4.318-.531-1.529-1.456-2.737-2.394-3.128-.522-.217-2.256-.276-8.171-.277-4.551 0-7.804-.083-8.26-.208-2.316-.641-4.387-3.645-5.64-8.18-.353-1.28-.427-2.13-.44-5.05-.014-3.095.04-3.698.448-5.106.965-3.324 2.667-5.683 4.828-6.692l1.152-.538 21.046-.117v4.831h-8.384c-9.656 0-9.289-.067-10.23 1.866-1.722 3.534-1.364 9.575.688 11.619l.76.756h7.767c4.766 0 8.157.084 8.775.216 2.124.453 3.704 2.31 4.82 5.665.982 2.949 1.311 5.487 1.187 9.158-.116 3.442-.511 5.365-1.56 7.597-.823 1.752-1.592 2.656-2.851 3.35l-1.073.592-24.47.115zm-39.66 1.89c-2.665-.576-4.66-2.007-5.577-4.003-1.176-2.559-1.154-2.153-1.229-22.514l-.069-18.705h8.475v16.734c0 10.682.077 17.287.213 18.262.407 2.91 1.226 4.399 2.87 5.215l1.024.508h13.817v-40.719h8.66v45.533l-13.443-.016c-10.707-.013-13.707-.073-14.74-.296zm-25.59-53.545v-3.711h8.66v7.421h-8.66z" style="fill:#f26400"/><path id="path11" d="M34.777 241.564c-3.624-1.273-6.36-5.888-7.05-11.896-.117-1.014-.198-10.616-.2-23.526l-.001-21.814h8.247l.058 22.817c.054 21.082.085 22.908.412 24.02.898 3.05 2.465 5.172 4.272 5.785 1.377.467 11.576.491 13.133.03 1.37-.404 2.539-1.566 3.395-3.376 1.486-3.137 1.385-1.289 1.45-26.56l.06-22.716h8.267l-.073 22.817c-.072 22.191-.085 22.866-.49 24.626-.789 3.44-2.42 6.694-4.124 8.227-.453.407-1.333.979-1.956 1.27l-1.132.528-11.68.043c-10.22.038-11.795.003-12.587-.275zm43.702-22.43v-22.766h13.462c12.66 0 13.552.023 14.988.388 3.656.932 5.204 2.559 6.115 6.432.322 1.365.36 3.217.426 20.109l.071 18.604h-8.678l-.007-17.2c-.007-18.014-.061-19.275-.9-20.927a5.3 5.3 0 0 0-2.214-2.259c-.78-.42-1.022-.433-7.654-.433h-6.847l-.103 40.82H78.48zm45.52 0v-22.766h8.66V241.9h-8.66zm0-31.295v-3.711h8.66v7.421h-8.66zm109.96-10.791c0-.058 1.608-1.136 3.574-2.396 34.796-22.29 71.538-37.756 100.15-42.155 5.9-.907 9.398-1.184 15.004-1.187 7.153-.004 11.273.55 16.144 2.169 4.776 1.588 8.788 4.33 11.113 7.596l.673.945-1.409-.908c-4.222-2.72-9.561-4.492-16.35-5.426-3.247-.447-11.209-.61-15.407-.315-29.328 2.059-67.874 15.791-107.45 38.279-2.824 1.605-5.34 3.05-5.589 3.21-.249.162-.453.246-.453.188" style="fill:#084887"/><path id="path12" d="M275.248 260.264c0-.056.182-.197.403-.315s.403-.17.403-.115-.181.197-.403.315c-.221.118-.403.17-.403.115"/><path id="path13" fill="#f26400" d="M155.418 298.244c-21.12-2.08-30.823-13.111-27.182-30.904 2.715-13.27 12.748-29.75 28.922-47.507 1.457-1.6 2.976-3.22 3.375-3.6.4-.38.726-.766.726-.857s-4.078-7.02-9.063-15.399c-4.984-8.378-9.063-15.282-9.063-15.34 0-.06 2.198-.104 4.884-.1l4.884.007 7.25 12.229c3.987 6.726 7.313 12.206 7.39 12.178.078-.028 1.845-1.641 3.928-3.586 26.957-25.165 60.96-48.313 96.632-65.782 42.823-20.972 81.63-30.413 104.93-25.528 12.08 2.533 19.262 8.98 20.943 18.8.168.98.297 2.379.287 3.11l-.018 1.327-.258-1.414c-.785-4.304-2.425-7.534-5.278-10.396-4.279-4.292-10.608-6.897-19.401-7.987-3.23-.4-13.398-.337-17.421.107-23.227 2.567-50.273 11.493-80.056 26.422-34.386 17.237-67.445 40.392-91.91 64.375-2.644 2.593-5.526 5.497-6.403 6.453l-1.596 1.74 10.708 18.018c5.89 9.91 10.747 18.086 10.794 18.169.048.082-2.125.15-4.827.15h-4.914l-8.82-14.839c-4.85-8.161-8.898-14.79-8.994-14.73s-1.385 1.614-2.864 3.455c-10.817 13.472-17.238 25.09-19.543 35.352-2.72 12.114 1.047 21.281 10.752 26.161 8.582 4.315 21.684 5.203 38.165 2.587 22.764-3.613 51.054-13.893 79.402-28.852 1.579-.833 2.87-1.478 2.87-1.433 0 .084-4.635 2.659-9.264 5.145-4.16 2.234-15.31 7.755-20.04 9.923-27.096 12.418-51.898 19.993-72.906 22.269-3.565.386-14.162.56-17.018.278z"/></svg>
